<mxfile host="Electron" agent="Mozilla/5.0 (X11; Linux x86_64) AppleWebKit/537.36 (KHTML, like Gecko) draw.io/24.7.5 Chrome/126.0.6478.183 Electron/31.3.0 Safari/537.36" version="24.7.5" pages="2">
  <diagram id="f106602c-feb2-e66a-4537-3a34d633f6aa" name="GKE">
    <mxGraphModel dx="1893" dy="1027" grid="1" gridSize="10" guides="1" tooltips="1" connect="1" arrows="1" fold="1" page="1" pageScale="1" pageWidth="1169" pageHeight="827" background="#ffffff" math="0" shadow="0">
      <root>
        <mxCell id="0" />
        <mxCell id="1" parent="0" />
        <mxCell id="14" value="" style="fillColor=#F6F6F6;strokeColor=none;shadow=0;gradientColor=none;fontSize=14;align=left;spacing=10;fontColor=#717171;9E9E9E;verticalAlign=top;spacingTop=-4;fontStyle=0;spacingLeft=40;html=1;" parent="1" vertex="1">
          <mxGeometry x="10" y="93" width="910" height="640" as="geometry" />
        </mxCell>
        <mxCell id="rFJzxfn2sBxsZ2zf37yl-693" value="" style="rounded=0;whiteSpace=wrap;html=1;fillColor=#f8cecc;strokeColor=#b85450;" parent="1" vertex="1">
          <mxGeometry x="240" y="146" width="660" height="400" as="geometry" />
        </mxCell>
        <mxCell id="rFJzxfn2sBxsZ2zf37yl-694" value="" style="rounded=0;whiteSpace=wrap;html=1;fillColor=#dae8fc;strokeColor=#6c8ebf;" parent="1" vertex="1">
          <mxGeometry x="250" y="184" width="620" height="352" as="geometry" />
        </mxCell>
        <mxCell id="rFJzxfn2sBxsZ2zf37yl-695" value="Visulate for Oracle&amp;nbsp;&lt;div&gt;Application&lt;/div&gt;" style="text;html=1;resizable=0;autosize=1;align=left;verticalAlign=middle;points=[];fillColor=none;strokeColor=none;rounded=0;" parent="1" vertex="1">
          <mxGeometry x="290" y="184" width="130" height="40" as="geometry" />
        </mxCell>
        <mxCell id="rFJzxfn2sBxsZ2zf37yl-696" value="" style="whiteSpace=wrap;html=1;" parent="1" vertex="1">
          <mxGeometry x="470" y="279" width="100" height="52" as="geometry" />
        </mxCell>
        <mxCell id="rFJzxfn2sBxsZ2zf37yl-698" value="&lt;br&gt;Reverse Proxy&lt;br&gt;port: 80" style="text;html=1;resizable=0;autosize=1;align=center;verticalAlign=middle;points=[];fillColor=none;strokeColor=none;rounded=0;" parent="1" vertex="1">
          <mxGeometry x="470" y="275" width="100" height="60" as="geometry" />
        </mxCell>
        <mxCell id="rFJzxfn2sBxsZ2zf37yl-699" value="&amp;lt;Service&amp;gt;: NodePort&lt;br&gt;port: 80" style="whiteSpace=wrap;html=1;" parent="1" vertex="1">
          <mxGeometry x="360" y="387" width="120" height="40" as="geometry" />
        </mxCell>
        <mxCell id="rFJzxfn2sBxsZ2zf37yl-700" value="&amp;lt;Service&amp;gt;: NodePort&lt;br&gt;port: 3000" style="whiteSpace=wrap;html=1;" parent="1" vertex="1">
          <mxGeometry x="530" y="387" width="120" height="40" as="geometry" />
        </mxCell>
        <mxCell id="rFJzxfn2sBxsZ2zf37yl-701" value="UI Instance&lt;br&gt;port: 80" style="whiteSpace=wrap;html=1;" parent="1" vertex="1">
          <mxGeometry x="360" y="461" width="120" height="60" as="geometry" />
        </mxCell>
        <mxCell id="rFJzxfn2sBxsZ2zf37yl-702" style="edgeStyle=orthogonalEdgeStyle;rounded=0;orthogonalLoop=1;jettySize=auto;html=1;exitX=0.5;exitY=1;exitDx=0;exitDy=0;" parent="1" edge="1">
          <mxGeometry relative="1" as="geometry">
            <mxPoint x="542" y="521" as="sourcePoint" />
            <mxPoint x="542" y="521" as="targetPoint" />
          </mxGeometry>
        </mxCell>
        <mxCell id="rFJzxfn2sBxsZ2zf37yl-703" value="API Server Instance&lt;br&gt;port: 3000" style="whiteSpace=wrap;html=1;" parent="1" vertex="1">
          <mxGeometry x="530" y="461" width="120" height="60" as="geometry" />
        </mxCell>
        <mxCell id="rFJzxfn2sBxsZ2zf37yl-705" value="" style="endArrow=classic;html=1;entryX=0.5;entryY=0;entryDx=0;entryDy=0;" parent="1" target="rFJzxfn2sBxsZ2zf37yl-700" edge="1">
          <mxGeometry width="50" height="50" relative="1" as="geometry">
            <mxPoint x="570" y="314" as="sourcePoint" />
            <mxPoint x="745" y="324" as="targetPoint" />
            <Array as="points">
              <mxPoint x="590" y="321" />
            </Array>
          </mxGeometry>
        </mxCell>
        <mxCell id="rFJzxfn2sBxsZ2zf37yl-706" value="" style="endArrow=classic;html=1;exitX=0.5;exitY=1;exitDx=0;exitDy=0;" parent="1" source="rFJzxfn2sBxsZ2zf37yl-699" target="rFJzxfn2sBxsZ2zf37yl-701" edge="1">
          <mxGeometry width="50" height="50" relative="1" as="geometry">
            <mxPoint x="474" y="698" as="sourcePoint" />
            <mxPoint x="524" y="648" as="targetPoint" />
          </mxGeometry>
        </mxCell>
        <mxCell id="rFJzxfn2sBxsZ2zf37yl-707" value="" style="endArrow=classic;html=1;exitX=0.5;exitY=1;exitDx=0;exitDy=0;" parent="1" source="rFJzxfn2sBxsZ2zf37yl-700" target="rFJzxfn2sBxsZ2zf37yl-703" edge="1">
          <mxGeometry width="50" height="50" relative="1" as="geometry">
            <mxPoint x="590" y="707" as="sourcePoint" />
            <mxPoint x="640" y="657" as="targetPoint" />
          </mxGeometry>
        </mxCell>
        <mxCell id="rFJzxfn2sBxsZ2zf37yl-709" value="" style="endArrow=classic;startArrow=classic;html=1;entryX=0.5;entryY=0;entryDx=0;entryDy=0;exitX=0.5;exitY=1;exitDx=0;exitDy=0;" parent="1" target="P5Zhf72EWf0H4dP_nzBQ-16" edge="1">
          <mxGeometry width="50" height="50" relative="1" as="geometry">
            <mxPoint x="119" y="34" as="sourcePoint" />
            <mxPoint x="210" y="374" as="targetPoint" />
          </mxGeometry>
        </mxCell>
        <mxCell id="rFJzxfn2sBxsZ2zf37yl-713" value="" style="endArrow=classic;html=1;exitX=1;exitY=0.5;exitDx=0;exitDy=0;entryX=1;entryY=0.5;entryDx=0;entryDy=0;" parent="1" source="rFJzxfn2sBxsZ2zf37yl-710" target="rFJzxfn2sBxsZ2zf37yl-703" edge="1">
          <mxGeometry width="50" height="50" relative="1" as="geometry">
            <mxPoint x="750" y="297" as="sourcePoint" />
            <mxPoint x="800" y="247" as="targetPoint" />
            <Array as="points">
              <mxPoint x="670" y="264" />
              <mxPoint x="670" y="491" />
            </Array>
          </mxGeometry>
        </mxCell>
        <mxCell id="QuNQ_bEFY-uZZTJxHg5K-15" value="&amp;lt;Service&amp;gt;: NodePort&lt;br&gt;port: 5000" style="whiteSpace=wrap;html=1;" parent="1" vertex="1">
          <mxGeometry x="710" y="387" width="120" height="40" as="geometry" />
        </mxCell>
        <mxCell id="QuNQ_bEFY-uZZTJxHg5K-16" value="SQL Query Instance&lt;br&gt;port: 5000" style="whiteSpace=wrap;html=1;" parent="1" vertex="1">
          <mxGeometry x="710" y="461" width="120" height="60" as="geometry" />
        </mxCell>
        <mxCell id="QuNQ_bEFY-uZZTJxHg5K-20" value="" style="endArrow=classic;html=1;entryX=0.5;entryY=0;entryDx=0;entryDy=0;exitX=0.39;exitY=0.933;exitDx=0;exitDy=0;exitPerimeter=0;" parent="1" source="rFJzxfn2sBxsZ2zf37yl-698" target="rFJzxfn2sBxsZ2zf37yl-699" edge="1">
          <mxGeometry width="50" height="50" relative="1" as="geometry">
            <mxPoint x="120" y="434" as="sourcePoint" />
            <mxPoint x="170" y="384" as="targetPoint" />
            <Array as="points">
              <mxPoint x="510" y="364" />
              <mxPoint x="420" y="364" />
            </Array>
          </mxGeometry>
        </mxCell>
        <mxCell id="QuNQ_bEFY-uZZTJxHg5K-21" value="" style="endArrow=classic;html=1;exitX=1;exitY=0.5;exitDx=0;exitDy=0;" parent="1" source="QuNQ_bEFY-uZZTJxHg5K-17" target="QuNQ_bEFY-uZZTJxHg5K-16" edge="1">
          <mxGeometry width="50" height="50" relative="1" as="geometry">
            <mxPoint x="810" y="224" as="sourcePoint" />
            <mxPoint x="830" y="491" as="targetPoint" />
            <Array as="points">
              <mxPoint x="850" y="264" />
              <mxPoint x="850" y="491" />
            </Array>
          </mxGeometry>
        </mxCell>
        <mxCell id="QuNQ_bEFY-uZZTJxHg5K-23" value="" style="group" parent="1" vertex="1" connectable="0">
          <mxGeometry x="680" y="204" width="140" height="40" as="geometry" />
        </mxCell>
        <mxCell id="QuNQ_bEFY-uZZTJxHg5K-17" value="" style="whiteSpace=wrap;html=1;" parent="QuNQ_bEFY-uZZTJxHg5K-23" vertex="1">
          <mxGeometry width="140" height="40" as="geometry" />
        </mxCell>
        <mxCell id="QuNQ_bEFY-uZZTJxHg5K-18" value="&lt;font style=&quot;font-size: 14px;&quot;&gt;k8s Secret&lt;/font&gt;" style="text;html=1;resizable=0;autosize=1;align=center;verticalAlign=middle;points=[];fillColor=none;strokeColor=none;rounded=0;" parent="QuNQ_bEFY-uZZTJxHg5K-23" vertex="1">
          <mxGeometry x="-4" y="-5" width="90" height="30" as="geometry" />
        </mxCell>
        <mxCell id="QuNQ_bEFY-uZZTJxHg5K-19" value="endpoints.json" style="text;html=1;resizable=0;autosize=1;align=center;verticalAlign=middle;points=[];fillColor=none;strokeColor=none;rounded=0;" parent="QuNQ_bEFY-uZZTJxHg5K-23" vertex="1">
          <mxGeometry x="45" y="20" width="90" height="20" as="geometry" />
        </mxCell>
        <mxCell id="QuNQ_bEFY-uZZTJxHg5K-24" value="" style="group" parent="1" vertex="1" connectable="0">
          <mxGeometry x="490" y="204" width="140" height="40" as="geometry" />
        </mxCell>
        <mxCell id="rFJzxfn2sBxsZ2zf37yl-710" value="" style="whiteSpace=wrap;html=1;" parent="QuNQ_bEFY-uZZTJxHg5K-24" vertex="1">
          <mxGeometry width="140" height="40" as="geometry" />
        </mxCell>
        <mxCell id="rFJzxfn2sBxsZ2zf37yl-711" value="&lt;font style=&quot;font-size: 14px;&quot;&gt;k8s Secret&lt;/font&gt;" style="text;html=1;resizable=0;autosize=1;align=center;verticalAlign=middle;points=[];fillColor=none;strokeColor=none;rounded=0;" parent="QuNQ_bEFY-uZZTJxHg5K-24" vertex="1">
          <mxGeometry x="-6" y="-5" width="90" height="30" as="geometry" />
        </mxCell>
        <mxCell id="rFJzxfn2sBxsZ2zf37yl-712" value="database.js" style="text;html=1;resizable=0;autosize=1;align=center;verticalAlign=middle;points=[];fillColor=none;strokeColor=none;rounded=0;" parent="QuNQ_bEFY-uZZTJxHg5K-24" vertex="1">
          <mxGeometry x="50" y="20" width="80" height="20" as="geometry" />
        </mxCell>
        <mxCell id="QuNQ_bEFY-uZZTJxHg5K-25" value="" style="endArrow=classic;html=1;exitX=1.022;exitY=0.34;exitDx=0;exitDy=0;exitPerimeter=0;entryX=0.5;entryY=0;entryDx=0;entryDy=0;" parent="1" source="rFJzxfn2sBxsZ2zf37yl-698" target="QuNQ_bEFY-uZZTJxHg5K-15" edge="1">
          <mxGeometry width="50" height="50" relative="1" as="geometry">
            <mxPoint x="740" y="344" as="sourcePoint" />
            <mxPoint x="790" y="294" as="targetPoint" />
            <Array as="points">
              <mxPoint x="770" y="301" />
            </Array>
          </mxGeometry>
        </mxCell>
        <mxCell id="QuNQ_bEFY-uZZTJxHg5K-26" value="" style="endArrow=classic;html=1;entryX=0.5;entryY=0;entryDx=0;entryDy=0;exitX=0.5;exitY=1;exitDx=0;exitDy=0;" parent="1" source="QuNQ_bEFY-uZZTJxHg5K-15" target="QuNQ_bEFY-uZZTJxHg5K-16" edge="1">
          <mxGeometry width="50" height="50" relative="1" as="geometry">
            <mxPoint x="960" y="414" as="sourcePoint" />
            <mxPoint x="1010" y="364" as="targetPoint" />
          </mxGeometry>
        </mxCell>
        <mxCell id="P5Zhf72EWf0H4dP_nzBQ-14" value="&amp;lt;Service&amp;gt;:&amp;nbsp;&lt;div&gt;ClusterIP&lt;br&gt;&lt;/div&gt;" style="whiteSpace=wrap;html=1;" parent="1" vertex="1">
          <mxGeometry x="258" y="272" width="72" height="162" as="geometry" />
        </mxCell>
        <mxCell id="rFJzxfn2sBxsZ2zf37yl-697" value="" style="shape=image;html=1;verticalAlign=top;verticalLabelPosition=bottom;labelBackgroundColor=#ffffff;imageAspect=0;aspect=fixed;image=https://cdn1.iconfinder.com/data/icons/hex-ico/128/ingress.png" parent="1" vertex="1">
          <mxGeometry x="262" y="282.5" width="28" height="28" as="geometry" />
        </mxCell>
        <mxCell id="P5Zhf72EWf0H4dP_nzBQ-15" value="" style="endArrow=classic;html=1;rounded=0;entryX=0.02;entryY=0.5;entryDx=0;entryDy=0;entryPerimeter=0;" parent="1" target="rFJzxfn2sBxsZ2zf37yl-698" edge="1">
          <mxGeometry width="50" height="50" relative="1" as="geometry">
            <mxPoint x="330" y="305" as="sourcePoint" />
            <mxPoint x="180" y="394" as="targetPoint" />
          </mxGeometry>
        </mxCell>
        <mxCell id="P5Zhf72EWf0H4dP_nzBQ-16" value="" style="shape=mxgraph.gcp2.doubleRect;strokeColor=#dddddd;shadow=1;strokeWidth=1;rounded=1;absoluteArcSize=1;arcSize=2;" parent="1" vertex="1">
          <mxGeometry x="20" y="256.5" width="198" height="68" as="geometry" />
        </mxCell>
        <mxCell id="P5Zhf72EWf0H4dP_nzBQ-17" value="Cloud Load Balancing" style="editableCssRules=.*;html=1;fontColor=#999999;shape=image;verticalLabelPosition=middle;verticalAlign=middle;labelPosition=right;align=left;spacingLeft=20;part=1;points=[];imageAspect=0;image=data:image/svg+xml,PHN2ZyB4bWxucz0iaHR0cDovL3d3dy53My5vcmcvMjAwMC9zdmciIHhtbG5zOnY9Imh0dHBzOi8vdmVjdGEuaW8vbmFubyIgd2lkdGg9IjIwIiBoZWlnaHQ9IjIwIiB2aWV3Qm94PSIwIDAgMjAgMjAiPiYjeGE7CTxzdHlsZSB0eXBlPSJ0ZXh0L2NzcyI+JiN4YTsJLnN0MHtmaWxsOiM0Mjg1ZjQ7fSYjeGE7CS5zdDF7ZmlsbDojNjY5ZGY2O30mI3hhOwkuc3Qye2ZpbGw6I2FlY2JmYTt9JiN4YTsJPC9zdHlsZT4mI3hhOwk8cGF0aCBjbGFzcz0ic3QxIiBkPSJNMTYgMTBoMnY0aC0yem0tNyAwaDJ2NEg5em0tNyAwaDJ2NEgyeiIvPiYjeGE7CTxwYXRoIGNsYXNzPSJzdDAiIGQ9Ik05IDVoMnY0SDl6Ii8+JiN4YTsJPHBhdGggY2xhc3M9InN0MSIgZD0iTTIgOWgxNnYySDJ6Ii8+JiN4YTsJPHBhdGggY2xhc3M9InN0MiIgZD0iTTQgMGgxMnY1SDR6Ii8+JiN4YTsJPHBhdGggY2xhc3M9InN0MSIgZD0iTTEwIDBoNnY1aC02eiIvPiYjeGE7CTxwYXRoIGNsYXNzPSJzdDIiIGQ9Ik0xNCAxNGg2djZoLTZ6TTAgMTRoNnY2SDB6Ii8+JiN4YTsJPHBhdGggY2xhc3M9InN0MSIgZD0iTTMgMTRoM3Y2SDN6Ii8+JiN4YTsJPHBhdGggY2xhc3M9InN0MiIgZD0iTTcgMTRoNnY2SDd6Ii8+JiN4YTsJPHBhdGggY2xhc3M9InN0MSIgZD0iTTEwIDE0aDN2NmgtM3ptNyAwaDN2NmgtM3oiLz4mI3hhOzwvc3ZnPg==;" parent="P5Zhf72EWf0H4dP_nzBQ-16" vertex="1">
          <mxGeometry width="30" height="30" relative="1" as="geometry">
            <mxPoint x="15" y="15" as="offset" />
          </mxGeometry>
        </mxCell>
        <mxCell id="P5Zhf72EWf0H4dP_nzBQ-19" value="Google Cloud" style="fillColor=#4DA1F5;strokeColor=none;shadow=1;gradientColor=none;fontSize=14;align=left;spacingLeft=50;fontColor=#ffffff;whiteSpace=wrap;html=1;" parent="1" vertex="1">
          <mxGeometry x="10" y="84" width="910" height="40" as="geometry" />
        </mxCell>
        <mxCell id="P5Zhf72EWf0H4dP_nzBQ-20" value="" style="strokeColor=#dddddd;shadow=1;strokeWidth=1;rounded=1;absoluteArcSize=1;arcSize=2;" parent="1" vertex="1">
          <mxGeometry x="280" y="620" width="386" height="100" as="geometry" />
        </mxCell>
        <mxCell id="P5Zhf72EWf0H4dP_nzBQ-21" value="Cloud&#xa;Interconnect" style="editableCssRules=.*;html=1;fontColor=#999999;shape=image;verticalLabelPosition=middle;verticalAlign=middle;labelPosition=right;align=left;spacingLeft=20;part=1;points=[];imageAspect=0;image=data:image/svg+xml,PHN2ZyB4bWxucz0iaHR0cDovL3d3dy53My5vcmcvMjAwMC9zdmciIHhtbG5zOnY9Imh0dHBzOi8vdmVjdGEuaW8vbmFubyIgd2lkdGg9IjIwIiBoZWlnaHQ9IjE4IiBmaWxsLXJ1bGU9ImV2ZW5vZGQiIHZpZXdCb3g9IjAgMCAyMCAxOCI+JiN4YTsJPHN0eWxlIHR5cGU9InRleHQvY3NzIj4mI3hhOwkuc3Qwe2ZpbGw6IzQyODVmNDt9JiN4YTsJLnN0MXtmaWxsOiM2NjlkZjY7fSYjeGE7CS5zdDJ7ZmlsbDojYWVjYmZhO30mI3hhOwk8L3N0eWxlPiYjeGE7CTxwYXRoIGNsYXNzPSJzdDAiIGQ9Ik00IDhIMHYyaDR6Ii8+JiN4YTsJPHBhdGggY2xhc3M9InN0MiIgZD0iTTMgNGgxMHYxMEgzeiIvPiYjeGE7CTxwYXRoIGNsYXNzPSJzdDAiIGQ9Ik0yMCA4aC00LjY3djJIMjB6Ii8+JiN4YTsJPHBhdGggY2xhc3M9InN0MSIgZD0iTTE1IDJ2MTRINnYyaDExdi0yVjIgMEg2djJ6TTggNGg1djEwSDh6Ii8+JiN4YTs8L3N2Zz4=;" parent="P5Zhf72EWf0H4dP_nzBQ-20" vertex="1">
          <mxGeometry width="30" height="27" relative="1" as="geometry">
            <mxPoint x="15" y="16" as="offset" />
          </mxGeometry>
        </mxCell>
        <mxCell id="P5Zhf72EWf0H4dP_nzBQ-27" value="" style="strokeColor=#dddddd;shadow=1;strokeWidth=1;rounded=1;absoluteArcSize=1;arcSize=2;" parent="1" vertex="1">
          <mxGeometry x="690" y="620" width="220" height="100" as="geometry" />
        </mxCell>
        <mxCell id="P5Zhf72EWf0H4dP_nzBQ-28" value="Compute&#xa;Engine" style="editableCssRules=.*;html=1;fontColor=#999999;shape=image;verticalLabelPosition=middle;verticalAlign=middle;labelPosition=right;align=left;spacingLeft=20;part=1;points=[];imageAspect=0;image=data:image/svg+xml,PHN2ZyB4bWxucz0iaHR0cDovL3d3dy53My5vcmcvMjAwMC9zdmciIHhtbG5zOnY9Imh0dHBzOi8vdmVjdGEuaW8vbmFubyIgd2lkdGg9IjIwIiBoZWlnaHQ9IjIwIiB2aWV3Qm94PSIwIDAgMjAgMjAiPiYjeGE7CTxzdHlsZSB0eXBlPSJ0ZXh0L2NzcyI+JiN4YTsJLnN0MHtmaWxsOiM0Mjg1ZjQ7fSYjeGE7CS5zdDF7ZmlsbDojNjY5ZGY2O30mI3hhOwkuc3Qye2ZpbGw6I2FlY2JmYTt9JiN4YTsJPC9zdHlsZT4mI3hhOwk8cGF0aCBjbGFzcz0ic3QyIiBkPSJNNyA3aDZ2Nkg3eiIvPiYjeGE7CTxwYXRoIGNsYXNzPSJzdDEiIGQ9Ik05IDBoMnY0SDl6TTUgMGgydjRINXptOCAwaDJ2NGgtMnoiLz4mI3hhOwk8cGF0aCBjbGFzcz0ic3QwIiBkPSJNOSAxNmgydjRIOXptLTQgMGgydjRINXptOCAwaDJ2NGgtMnptMy01VjloNHYyem0wIDR2LTJoNHYyem0wLThWNWg0djJ6Ii8+JiN4YTsJPHBhdGggY2xhc3M9InN0MSIgZD0iTTAgMTFWOWg0djJ6bTAgNHYtMmg0djJ6bTAtOFY1aDR2MnoiLz4mI3hhOwk8cGF0aCBjbGFzcz0ic3QyIiBkPSJNMyAzdjE0aDE0VjN6bTEyIDEySDVWNWgxMHoiLz4mI3hhOwk8cGF0aCBjbGFzcz0ic3QxIiBkPSJNMTAgMTBsLTMgM2g2eiIvPiYjeGE7CTxwYXRoIGNsYXNzPSJzdDAiIGQ9Ik0xMyA3bC0zIDMgMyAzeiIvPiYjeGE7PC9zdmc+;" parent="P5Zhf72EWf0H4dP_nzBQ-27" vertex="1">
          <mxGeometry width="30" height="30" relative="1" as="geometry">
            <mxPoint x="15" y="15" as="offset" />
          </mxGeometry>
        </mxCell>
        <mxCell id="P5Zhf72EWf0H4dP_nzBQ-32" value="" style="dashed=0;outlineConnect=0;html=1;align=center;labelPosition=center;verticalLabelPosition=bottom;verticalAlign=top;shape=mxgraph.weblogos.oracle;fillColor=#FF0000;strokeColor=none" parent="P5Zhf72EWf0H4dP_nzBQ-27" vertex="1">
          <mxGeometry x="126" y="70" width="90" height="23" as="geometry" />
        </mxCell>
        <mxCell id="P5Zhf72EWf0H4dP_nzBQ-30" value="" style="strokeColor=#dddddd;shadow=1;strokeWidth=1;rounded=1;absoluteArcSize=1;arcSize=2;" parent="1" vertex="1">
          <mxGeometry x="20" y="620" width="236" height="100" as="geometry" />
        </mxCell>
        <mxCell id="P5Zhf72EWf0H4dP_nzBQ-31" value="GCVE" style="editableCssRules=.*;html=1;fontColor=#999999;shape=image;verticalLabelPosition=middle;verticalAlign=middle;labelPosition=right;align=left;spacingLeft=20;part=1;points=[];imageAspect=0;image=data:image/svg+xml,PHN2ZyB4bWxucz0iaHR0cDovL3d3dy53My5vcmcvMjAwMC9zdmciIHhtbG5zOnY9Imh0dHBzOi8vdmVjdGEuaW8vbmFubyIgd2lkdGg9IjIwIiBoZWlnaHQ9IjIwIiB2aWV3Qm94PSIwIDAgMjAgMjAiPiYjeGE7CTxzdHlsZSB0eXBlPSJ0ZXh0L2NzcyI+JiN4YTsJLnN0MHtmaWxsOiM0Mjg1ZjQ7fSYjeGE7CS5zdDF7ZmlsbDojNjY5ZGY2O30mI3hhOwkuc3Qye2ZpbGw6I2FlY2JmYTt9JiN4YTsJPC9zdHlsZT4mI3hhOwk8cGF0aCBjbGFzcz0ic3QyIiBkPSJNNyA3aDZ2Nkg3eiIvPiYjeGE7CTxwYXRoIGNsYXNzPSJzdDEiIGQ9Ik05IDBoMnY0SDl6TTUgMGgydjRINXptOCAwaDJ2NGgtMnoiLz4mI3hhOwk8cGF0aCBjbGFzcz0ic3QwIiBkPSJNOSAxNmgydjRIOXptLTQgMGgydjRINXptOCAwaDJ2NGgtMnptMy01VjloNHYyem0wIDR2LTJoNHYyem0wLThWNWg0djJ6Ii8+JiN4YTsJPHBhdGggY2xhc3M9InN0MSIgZD0iTTAgMTFWOWg0djJ6bTAgNHYtMmg0djJ6bTAtOFY1aDR2MnoiLz4mI3hhOwk8cGF0aCBjbGFzcz0ic3QyIiBkPSJNMyAzdjE0aDE0VjN6bTEyIDEySDVWNWgxMHoiLz4mI3hhOwk8cGF0aCBjbGFzcz0ic3QxIiBkPSJNMTAgMTBsLTMgM2g2eiIvPiYjeGE7CTxwYXRoIGNsYXNzPSJzdDAiIGQ9Ik0xMyA3bC0zIDMgMyAzeiIvPiYjeGE7PC9zdmc+;" parent="P5Zhf72EWf0H4dP_nzBQ-30" vertex="1">
          <mxGeometry width="30" height="30" relative="1" as="geometry">
            <mxPoint x="15" y="15" as="offset" />
          </mxGeometry>
        </mxCell>
        <mxCell id="P5Zhf72EWf0H4dP_nzBQ-29" value="" style="pointerEvents=1;shadow=0;dashed=0;html=1;strokeColor=none;fillColor=#4495D1;labelPosition=center;verticalLabelPosition=bottom;verticalAlign=top;align=center;outlineConnect=0;shape=mxgraph.veeam.vmware_host;" parent="P5Zhf72EWf0H4dP_nzBQ-30" vertex="1">
          <mxGeometry x="140" y="11" width="84" height="55" as="geometry" />
        </mxCell>
        <mxCell id="P5Zhf72EWf0H4dP_nzBQ-36" value="" style="dashed=0;outlineConnect=0;html=1;align=center;labelPosition=center;verticalLabelPosition=bottom;verticalAlign=top;shape=mxgraph.weblogos.oracle;fillColor=#FF0000;strokeColor=none" parent="P5Zhf72EWf0H4dP_nzBQ-30" vertex="1">
          <mxGeometry x="141" y="73" width="90" height="23" as="geometry" />
        </mxCell>
        <mxCell id="P5Zhf72EWf0H4dP_nzBQ-43" value="" style="group" parent="1" vertex="1" connectable="0">
          <mxGeometry x="256" y="781" width="150" height="70" as="geometry" />
        </mxCell>
        <mxCell id="P5Zhf72EWf0H4dP_nzBQ-39" value="On-Premise" style="sketch=0;outlineConnect=0;gradientColor=none;html=1;whiteSpace=wrap;fontSize=12;fontStyle=0;shape=mxgraph.aws4.group;grIcon=mxgraph.aws4.group_on_premise;strokeColor=#858B94;fillColor=none;verticalAlign=top;align=left;spacingLeft=30;fontColor=#858B94;dashed=0;" parent="P5Zhf72EWf0H4dP_nzBQ-43" vertex="1">
          <mxGeometry width="150" height="70" as="geometry" />
        </mxCell>
        <mxCell id="P5Zhf72EWf0H4dP_nzBQ-41" value="" style="dashed=0;outlineConnect=0;html=1;align=center;labelPosition=center;verticalLabelPosition=bottom;verticalAlign=top;shape=mxgraph.weblogos.oracle;fillColor=#FF0000;strokeColor=none" parent="P5Zhf72EWf0H4dP_nzBQ-43" vertex="1">
          <mxGeometry x="56" y="44" width="90" height="23" as="geometry" />
        </mxCell>
        <mxCell id="P5Zhf72EWf0H4dP_nzBQ-44" value="" style="group" parent="1" vertex="1" connectable="0">
          <mxGeometry x="84" y="780" width="150" height="70" as="geometry" />
        </mxCell>
        <mxCell id="P5Zhf72EWf0H4dP_nzBQ-45" value="Google Bare Metal" style="sketch=0;outlineConnect=0;gradientColor=none;html=1;whiteSpace=wrap;fontSize=12;fontStyle=0;shape=mxgraph.aws4.group;grIcon=mxgraph.aws4.group_on_premise;strokeColor=#858B94;fillColor=none;verticalAlign=top;align=left;spacingLeft=30;fontColor=#858B94;dashed=0;" parent="P5Zhf72EWf0H4dP_nzBQ-44" vertex="1">
          <mxGeometry width="150" height="70" as="geometry" />
        </mxCell>
        <mxCell id="P5Zhf72EWf0H4dP_nzBQ-46" value="" style="dashed=0;outlineConnect=0;html=1;align=center;labelPosition=center;verticalLabelPosition=bottom;verticalAlign=top;shape=mxgraph.weblogos.oracle;fillColor=#FF0000;strokeColor=none" parent="P5Zhf72EWf0H4dP_nzBQ-44" vertex="1">
          <mxGeometry x="56" y="44" width="90" height="23" as="geometry" />
        </mxCell>
        <mxCell id="P5Zhf72EWf0H4dP_nzBQ-47" value="" style="group" parent="1" vertex="1" connectable="0">
          <mxGeometry x="600" y="782" width="150" height="70" as="geometry" />
        </mxCell>
        <mxCell id="P5Zhf72EWf0H4dP_nzBQ-48" value="Azure" style="sketch=0;outlineConnect=0;gradientColor=none;html=1;whiteSpace=wrap;fontSize=12;fontStyle=0;shape=mxgraph.aws4.group;grIcon=mxgraph.aws4.group_on_premise;strokeColor=#858B94;fillColor=none;verticalAlign=top;align=left;spacingLeft=30;fontColor=#858B94;dashed=0;" parent="P5Zhf72EWf0H4dP_nzBQ-47" vertex="1">
          <mxGeometry width="150" height="70" as="geometry" />
        </mxCell>
        <mxCell id="P5Zhf72EWf0H4dP_nzBQ-49" value="" style="dashed=0;outlineConnect=0;html=1;align=center;labelPosition=center;verticalLabelPosition=bottom;verticalAlign=top;shape=mxgraph.weblogos.oracle;fillColor=#FF0000;strokeColor=none" parent="P5Zhf72EWf0H4dP_nzBQ-47" vertex="1">
          <mxGeometry x="56" y="44" width="90" height="23" as="geometry" />
        </mxCell>
        <mxCell id="P5Zhf72EWf0H4dP_nzBQ-50" value="" style="group" parent="1" vertex="1" connectable="0">
          <mxGeometry x="760" y="781" width="150" height="70" as="geometry" />
        </mxCell>
        <mxCell id="P5Zhf72EWf0H4dP_nzBQ-51" value="AWS" style="sketch=0;outlineConnect=0;gradientColor=none;html=1;whiteSpace=wrap;fontSize=12;fontStyle=0;shape=mxgraph.aws4.group;grIcon=mxgraph.aws4.group_on_premise;strokeColor=#858B94;fillColor=none;verticalAlign=top;align=left;spacingLeft=30;fontColor=#858B94;dashed=0;" parent="P5Zhf72EWf0H4dP_nzBQ-50" vertex="1">
          <mxGeometry width="150" height="70" as="geometry" />
        </mxCell>
        <mxCell id="P5Zhf72EWf0H4dP_nzBQ-52" value="" style="dashed=0;outlineConnect=0;html=1;align=center;labelPosition=center;verticalLabelPosition=bottom;verticalAlign=top;shape=mxgraph.weblogos.oracle;fillColor=#FF0000;strokeColor=none" parent="P5Zhf72EWf0H4dP_nzBQ-50" vertex="1">
          <mxGeometry x="56" y="44" width="90" height="23" as="geometry" />
        </mxCell>
        <mxCell id="P5Zhf72EWf0H4dP_nzBQ-53" value="" style="group" parent="1" vertex="1" connectable="0">
          <mxGeometry x="430" y="781" width="150" height="70" as="geometry" />
        </mxCell>
        <mxCell id="P5Zhf72EWf0H4dP_nzBQ-54" value="OCI" style="sketch=0;outlineConnect=0;gradientColor=none;html=1;whiteSpace=wrap;fontSize=12;fontStyle=0;shape=mxgraph.aws4.group;grIcon=mxgraph.aws4.group_on_premise;strokeColor=#858B94;fillColor=none;verticalAlign=top;align=left;spacingLeft=30;fontColor=#858B94;dashed=0;" parent="P5Zhf72EWf0H4dP_nzBQ-53" vertex="1">
          <mxGeometry width="150" height="70" as="geometry" />
        </mxCell>
        <mxCell id="P5Zhf72EWf0H4dP_nzBQ-55" value="" style="dashed=0;outlineConnect=0;html=1;align=center;labelPosition=center;verticalLabelPosition=bottom;verticalAlign=top;shape=mxgraph.weblogos.oracle;fillColor=#FF0000;strokeColor=none" parent="P5Zhf72EWf0H4dP_nzBQ-53" vertex="1">
          <mxGeometry x="56" y="44" width="90" height="23" as="geometry" />
        </mxCell>
        <mxCell id="P5Zhf72EWf0H4dP_nzBQ-56" value="" style="endArrow=none;html=1;rounded=0;entryX=0.5;entryY=1;entryDx=0;entryDy=0;exitX=0.475;exitY=0;exitDx=0;exitDy=0;exitPerimeter=0;" parent="1" source="P5Zhf72EWf0H4dP_nzBQ-30" target="rFJzxfn2sBxsZ2zf37yl-703" edge="1">
          <mxGeometry width="50" height="50" relative="1" as="geometry">
            <mxPoint x="560" y="620" as="sourcePoint" />
            <mxPoint x="610" y="570" as="targetPoint" />
            <Array as="points">
              <mxPoint x="132" y="570" />
              <mxPoint x="590" y="570" />
            </Array>
          </mxGeometry>
        </mxCell>
        <mxCell id="P5Zhf72EWf0H4dP_nzBQ-57" value="" style="endArrow=none;html=1;rounded=0;exitX=0.5;exitY=0;exitDx=0;exitDy=0;" parent="1" edge="1">
          <mxGeometry width="50" height="50" relative="1" as="geometry">
            <mxPoint x="519" y="620" as="sourcePoint" />
            <mxPoint x="518" y="570" as="targetPoint" />
          </mxGeometry>
        </mxCell>
        <mxCell id="P5Zhf72EWf0H4dP_nzBQ-58" value="" style="endArrow=none;html=1;rounded=0;entryX=0.5;entryY=1;entryDx=0;entryDy=0;exitX=0.5;exitY=0;exitDx=0;exitDy=0;" parent="1" source="P5Zhf72EWf0H4dP_nzBQ-27" target="QuNQ_bEFY-uZZTJxHg5K-16" edge="1">
          <mxGeometry width="50" height="50" relative="1" as="geometry">
            <mxPoint x="950" y="620" as="sourcePoint" />
            <mxPoint x="1000" y="570" as="targetPoint" />
            <Array as="points">
              <mxPoint x="800" y="570" />
              <mxPoint x="770" y="570" />
            </Array>
          </mxGeometry>
        </mxCell>
        <mxCell id="P5Zhf72EWf0H4dP_nzBQ-59" value="" style="endArrow=none;html=1;rounded=0;" parent="1" edge="1">
          <mxGeometry width="50" height="50" relative="1" as="geometry">
            <mxPoint x="590" y="570" as="sourcePoint" />
            <mxPoint x="780" y="570" as="targetPoint" />
          </mxGeometry>
        </mxCell>
        <mxCell id="P5Zhf72EWf0H4dP_nzBQ-60" value="" style="endArrow=none;html=1;rounded=0;entryX=0.098;entryY=1.01;entryDx=0;entryDy=0;entryPerimeter=0;" parent="1" source="P5Zhf72EWf0H4dP_nzBQ-45" target="P5Zhf72EWf0H4dP_nzBQ-20" edge="1">
          <mxGeometry width="50" height="50" relative="1" as="geometry">
            <mxPoint x="160" y="770" as="sourcePoint" />
            <mxPoint x="440" y="730" as="targetPoint" />
          </mxGeometry>
        </mxCell>
        <mxCell id="P5Zhf72EWf0H4dP_nzBQ-61" value="" style="endArrow=none;html=1;rounded=0;entryX=0.25;entryY=1;entryDx=0;entryDy=0;" parent="1" target="P5Zhf72EWf0H4dP_nzBQ-20" edge="1">
          <mxGeometry width="50" height="50" relative="1" as="geometry">
            <mxPoint x="330" y="780" as="sourcePoint" />
            <mxPoint x="550" y="720" as="targetPoint" />
          </mxGeometry>
        </mxCell>
        <mxCell id="P5Zhf72EWf0H4dP_nzBQ-62" value="" style="endArrow=none;html=1;rounded=0;entryX=0.5;entryY=1;entryDx=0;entryDy=0;" parent="1" source="P5Zhf72EWf0H4dP_nzBQ-54" target="P5Zhf72EWf0H4dP_nzBQ-20" edge="1">
          <mxGeometry width="50" height="50" relative="1" as="geometry">
            <mxPoint x="500" y="770" as="sourcePoint" />
            <mxPoint x="550" y="720" as="targetPoint" />
          </mxGeometry>
        </mxCell>
        <mxCell id="P5Zhf72EWf0H4dP_nzBQ-64" value="" style="endArrow=none;html=1;rounded=0;entryX=0.75;entryY=1;entryDx=0;entryDy=0;" parent="1" source="P5Zhf72EWf0H4dP_nzBQ-48" target="P5Zhf72EWf0H4dP_nzBQ-20" edge="1">
          <mxGeometry width="50" height="50" relative="1" as="geometry">
            <mxPoint x="710" y="970" as="sourcePoint" />
            <mxPoint x="550" y="720" as="targetPoint" />
          </mxGeometry>
        </mxCell>
        <mxCell id="P5Zhf72EWf0H4dP_nzBQ-65" value="" style="endArrow=none;html=1;rounded=0;entryX=0.896;entryY=1.01;entryDx=0;entryDy=0;entryPerimeter=0;" parent="1" target="P5Zhf72EWf0H4dP_nzBQ-20" edge="1">
          <mxGeometry width="50" height="50" relative="1" as="geometry">
            <mxPoint x="810" y="780" as="sourcePoint" />
            <mxPoint x="810" y="910" as="targetPoint" />
          </mxGeometry>
        </mxCell>
        <mxCell id="P5Zhf72EWf0H4dP_nzBQ-66" value="" style="strokeColor=#dddddd;shadow=1;strokeWidth=1;rounded=1;absoluteArcSize=1;arcSize=2;" parent="1" vertex="1">
          <mxGeometry x="28" y="150" width="190" height="60" as="geometry" />
        </mxCell>
        <mxCell id="P5Zhf72EWf0H4dP_nzBQ-67" value="&lt;font color=&quot;#000000&quot;&gt;Secure Access&lt;/font&gt;&lt;br&gt;Identity-Aware Proxy" style="editableCssRules=.*;html=1;fontColor=#999999;shape=image;verticalLabelPosition=middle;verticalAlign=middle;labelPosition=right;align=left;spacingLeft=20;part=1;points=[];imageAspect=0;image=data:image/svg+xml,PHN2ZyB4bWxucz0iaHR0cDovL3d3dy53My5vcmcvMjAwMC9zdmciIHhtbG5zOnY9Imh0dHBzOi8vdmVjdGEuaW8vbmFubyIgd2lkdGg9IjE5Ljk5IiBoZWlnaHQ9IjEwLjQxIiB2aWV3Qm94PSIwIDAgMTkuOTkgMTAuNDEiPiYjeGE7CTxwYXRoIGQ9Ik05Ljg0LjIxYTUuMSA1LjEgMCAxIDAgNS4xIDUuMWgwYTUuMSA1LjEgMCAwIDAtNS4xLTUuMXptMCA5LjA4YTQgNCAwIDEgMSA0LTRoMGE0IDQgMCAwIDEtNCA0LjAxeiIgZmlsbD0iIzQyODVmNCIvPiYjeGE7CTxwYXRoIGQ9Ik0xMS43NiA1LjkyYTIuMDkgMi4wOSAwIDAgMC0uMjgtLjIyIDMuMTEgMy4xMSAwIDAgMC0yLjYxLS4yOCAyLjMxIDIuMzEgMCAwIDAtLjg5LjQ3Ljg2Ljg2IDAgMCAwLS4zNy42NXYxaDQuNDd2LS44MmExIDEgMCAwIDAtLjMyLS44ek05Ljg0IDQuNzRhMS4xNiAxLjE2IDAgMSAwLTEuMTctMS4xNWgwYTEuMTcgMS4xNyAwIDAgMCAxLjE3IDEuMTV6IiBmaWxsPSIjNjY5ZGY2Ii8+JiN4YTsJPHBhdGggZD0iTTE2LjI5IDUuNmgyLjIxbC0uNzcuNzhoMS4wNGwxLjIyLTEuMjMtMS4yMi0xLjIyaC0xLjA0bC43Ny43N2gtMi4yMXoiIGZpbGw9IiNhZWNiZmEiLz4mI3hhOwk8cGF0aCBkPSJNMTcuODggMS43M1YwaC0xLjczbC0uNzMuNzRoMS4wOWwtLjk4Ljk3LjY0LjY0Ljk4LS45N3YxLjA5em0tMi40NiA3Ljk1bC43My43M2gxLjczVjguNjhsLS43My0uNzN2MS4wOWwtLjk4LS45Ny0uNjQuNjMuOTguOTh6TTEuMzQgMy44NkExLjM1IDEuMzUgMCAxIDAgMi43IDUuMjFhMS4zNSAxLjM1IDAgMCAwLTEuMzYtMS4zNXptMCAyLjFhLjc2Ljc2IDAgMSAxIC43Ni0uNzVoMGEuNzYuNzYgMCAwIDEtLjc2Ljc1eiIgZmlsbD0iIzY2OWRmNiIvPiYjeGE7PC9zdmc+;" parent="P5Zhf72EWf0H4dP_nzBQ-66" vertex="1">
          <mxGeometry width="30" height="15" relative="1" as="geometry">
            <mxPoint x="15" y="22" as="offset" />
          </mxGeometry>
        </mxCell>
        <mxCell id="P5Zhf72EWf0H4dP_nzBQ-68" value="&amp;nbsp;User" style="html=1;whiteSpace=wrap;strokeColor=none;fillColor=#0079D6;labelPosition=center;verticalLabelPosition=middle;verticalAlign=top;align=center;fontSize=12;outlineConnect=0;spacingTop=-6;fontColor=#FFFFFF;sketch=0;shape=mxgraph.sitemap.user;" parent="1" vertex="1">
          <mxGeometry x="68.5" y="9" width="101" height="56" as="geometry" />
        </mxCell>
        <mxCell id="P5Zhf72EWf0H4dP_nzBQ-69" value="" style="sketch=0;html=1;verticalAlign=top;labelPosition=center;verticalLabelPosition=bottom;align=left;spacingTop=-6;fontSize=11;fontStyle=1;fontColor=#999999;shape=image;aspect=fixed;imageAspect=0;image=data:image/svg+xml,PHN2ZyB4bWxucz0iaHR0cDovL3d3dy53My5vcmcvMjAwMC9zdmciIHhtbG5zOnY9Imh0dHBzOi8vdmVjdGEuaW8vbmFubyIgd2lkdGg9IjMyOS45MjU5OTcyMzE3OTM4IiBoZWlnaHQ9IjM3OC4yODQ5OTAzMTEyNzg4IiB2aWV3Qm94PSIwIDAgODcuMjkyOTk5MjY3NTc4MTIgMTAwLjA4Nzk5NzQzNjUyMzQ0Ij4mI3hhOzxzdHlsZSB0eXBlPSJ0ZXh0L2NzcyI+JiN4YTsJLnN0MHtmaWxsOiNhZWNiZmE7fSYjeGE7CS5zdDF7ZmlsbDojNjY5ZGY2O30mI3hhOwkuc3Qye2ZpbGw6IzQyODVmNDt9JiN4YTs8L3N0eWxlPiYjeGE7CTxwYXRoIGNsYXNzPSJzdDAiIGQ9Ik00My43NTEgMEwwIDI1LjQ2NXYyLjU4OCA0Ni45Mmw0My43NTIgMjUuMTE1IDQzLjU0MS0yNS4xMjFWMjUuNDczem0yLjQzOCAxMS44NTNsMzIuMTAzIDE4Ljc4MlY2OS43N0w0My43MzkgODkuNzA1IDkgNjkuNzYyVjMwLjY0MWwzMi4xOS0xOC43MzZ2MTQuMTU0TDI0LjUwMyAzNi4xNTNsMTkuMTcyIDExLjUwMiAxOC44ODYtMTEuNTU0LTE2LjM3Mi0xMC4wMjR6Ii8+JiN4YTsJPHBhdGggY2xhc3M9InN0MSIgZD0iTTIyLjAyNSA0MC40OTZsLjE2NiAxOS4xNDMtMTMuMjQ3IDcuMzN2Mi43NDJsMi42MzcgMS41MTQgMTIuNjQ4LTYuOTk5IDE2Ljk2MSAxMC42MDJWNTEuOTkzeiIvPiYjeGE7CTxwYXRoIGNsYXNzPSJzdDIiIGQ9Ik02NS4zNDQgNDAuMjZMNDYuMTg5IDUxLjk3OXYyMi44NDdsMTYuODk5LTEwLjU3NiAxMi41MzkgNi45NzQgMi42MDktMS41MDV2LTIuNzY1bC0xMi43ODQtNy4xMTJ6Ii8+JiN4YTs8L3N2Zz4=;" parent="1" vertex="1">
          <mxGeometry x="250" y="149" width="27.31" height="31" as="geometry" />
        </mxCell>
        <mxCell id="P5Zhf72EWf0H4dP_nzBQ-70" value="Google Kubernetes Engine" style="text;strokeColor=none;fillColor=none;align=left;verticalAlign=top;spacingLeft=4;spacingRight=4;overflow=hidden;rotatable=0;points=[[0,0.5],[1,0.5]];portConstraint=eastwest;whiteSpace=wrap;html=1;" parent="1" vertex="1">
          <mxGeometry x="276" y="150" width="164" height="26" as="geometry" />
        </mxCell>
        <mxCell id="P5Zhf72EWf0H4dP_nzBQ-71" value="" style="shape=image;verticalLabelPosition=bottom;labelBackgroundColor=default;verticalAlign=top;aspect=fixed;imageAspect=0;image=data:image/vnd.microsoft.icon,AAABAAMAEBAAAAEAIABoBAAANgAAACAgAAABACAAKBEAAJ4EAAAwMAAAAQAgAGgmAADGFQAAKAAAABAAAAAgAAAAAQAgAAAAAAAAAAAAAAAAAAAAAAAAAAAAAAAAAPGNOtbxjTvy8Y078vGNO/LxjTvy8Y078vGNO/LxjTvy8ok7J/+qAAP/jjkJ/445Cf9VAAMAAAAAAAAAAAAAAADxjTrg8Y07//GNO//xjTv/8Y07//GNO//xjTv/8Y07//CNOVXwjTrk8Y068fCMO/LxjTvi8Yw7uvCLOnfyjDMU8Y064PKbVP/0rHH/86hp//a9jf/0rnT/9baC//KUSP/xjTpc8Y07//GNO//xjTv/8Y07//GNO//xjTv/8Y07zPGNOuDymE//9Kpt//OdV//znln/9KZm//OgXP/xjz//7o07SvGMO5TxjTqN8Y46kPCLOpbxjDux8Y075/GNO+rxjTrg8Y07//GNO//xjTv/8Y07//GNO//xjTv/8Y07//GOOljxjTvz8Y06/fKNOv3yjTv28Yw61/GMO6Tzjjt+8I063/GNOv3xjTr98Y06/fGNO/7xjTv/8Y07//GNO//xjTpc8Y07//GNO//xjTv/8Y07//GNO//xjTv/8o072faSNxznhzAg54cwIOeHMCDwjT1D8Y078vGNO//xjTv/8Y45SPGNO5PxjTqS8Y05k/GMOpXxjTqf8Y071fGNO+n/gAACAAAAAAAAAAAAAAAAAAAAAPGOOUjuizp77os6e/GPOkvyjTr98Y06/vGOO/7xjTr98Y076vGMOrTxjDuB8I05QwAAAAAAAAAAAAAAAAAAAAAAAAAA8Yw6qPGMOsPwjTvd8Y07//GNO//xjTv/8Y07//GNO//xjTv/8I074vOMOYHxjDp88oxAFPCOPCLUgCoGAAAAAPGNOtbxjDu78Y07j/GNO4/wjDqZ8o07mPGMOpXwjDqV8Yw6uPCNOuTyjEAU8Y061vKNO/bwjDrj74w5bwAAAADyjDtk8Yw7w/KNOvnxjTv/8Y07//GNO//xjTv/8o07+/GNO87vjjpzAAAAAPOGPRXxjTqj8Y47/vGNOu30kDcX8Y071PGNO//xjTv/8Y07//GNOv7xjTr+8Y07//GNO//xjTv/8o075QAAAAAAAAAA7og7HvGMOYHwizxE/5IkB/GMO87wjTus8Y06lvGNOqPyjDuq8I06rPGMOqfyjDug8Iw7qfGNOtYAAAAAAAAAAAAAAAAAAAAAAAAAAAAAAADyjDl48Yw76fGOO/7xjTv/8Y07//GNO//xjTv/8Y07//GNOvDxjTqNAAAAAAAAAAAAAAAAAAAAAAAAAAAAAAAA8ow7m/GNO//xjTv/8Y07//GNO//xjTv/8Y07//GNO//xjTv+8I07rgAAAAAAAAAAAAAAAAAAAAAAAAAAAAAAAKpVAAPviTtB8Iw7ivKOOqvyjDq98Y06wvKNOrDvjDqD8o86OapVAAMAAAAAAAAAAAAAAAAAAAAAAAAAAAAAAAAAAAAAAAAAAAAAAAAAAAAAAAAAAAAAAAAAAAAAAAAAAAAAAAAAAAAAKAAAACAAAABAAAAAAQAgAAAAAAAAAAAAAAAAAAAAAAAAAAAAAAAAAPKNO7HyjTvm8o075vKNO+byjTvm8o075vKNO+byjTvm8o075vKNO+byjTvm8o075vKNO+byjTvm8o075vKNO+byjTlMAAAAAAAAAAAAAAAAAAAAAAAAAAAAAAAAAAAAAAAAAAAAAAAAAAAAAAAAAAAAAAAAAAAAAAAAAAAAAAAA8Y06wvGNO//xjTv/8Y07//GNO//xjTv/8Y07//GNO//xjTv/8Y07//GNO//xjTv/8Y07//GNO//xjTv/8Y07/++MOVAAAAAA/4AAAuiLLgvwhzwR8owzFPOLOhb/j0AQ/4AzCoCAAAIAAAAAAAAAAAAAAAAAAAAAAAAAAAAAAADxjTrC8Y07//GNO//xjTv/8Y07//GNO//xjTv/8Y07//GNO//xjTv/8Y07//GNO//xjTv/8Y07//GNO//xjTv/74w5UPGNO0ryjTq+8Y071PGNOuDxjTvn8Y076vGNOt/wjDrT8Y07ufKMOozxjTle8ok7J/+AQAQAAAAAAAAAAPGNOsLxjTv/8Y07//GNO//xjTv/8Y07//GNO//xjTv/8Y07//GNO//xjTv/8Y07//GNO//xjTv/8Y07//GNO//vjDlQ8I06afGNO//xjTv/8Y07//GNO//xjTv/8Y07//GNO//xjTv/8Y07//GNO/7xjTv08Y06vPKLOk//gAAC8Y06wvGNO//xjTv/859b//a7i//1tH7/9Kxx//OiX//2uYf/9ryM//e8i//1tX//9Ktv//W1gP/ylkr/8Y07/++MOVDwjTpp8Y07//GNO//xjTv/8Y07//GNO//xjTv/8Y07//GNO//xjTv/8Y07//GNO//xjTv/8Y06+fGNOWvxjTrC8Y07//GNO//1tYH/8Y8///Wye//1t4T/8ppS//a5hv/4xp3/8p1W//SrcP/3wJT/9riG//OiX//xjTv/74w5UPCNOmnxjTv/8Y07//GNO//xjTv/8Y07//GNO//xjTv/8Y07//GNO//xjTv/8Y07//GNO//xjTv/8Y07zvGNOsLxjTv/8Y07//W0fv/ylkz/9riF//Wye//0qGv/9rqJ//OmZ//2uYf/9reE//Sqbf/2toP/8pZL//GNO//vjDlQ8I06afGMOv3xjTvt8Y074vCNO+LwjTvi8Yw75fCMOvDxjDv78Y07/vGNO//xjTv/8Y07//GNO//xjTrW8Y06wvGNO//xjTv/8pRI//a0gP/zpWT/8Y07//GNO//xjTv/8Y07//GNO//ym1T/8ZJE//GNO//xjTv/8Y07/++MOVD2kDse8Yk5NvCKODLwjDcz7ow3PPCLOkLxjTc48Yw6NfGLODfyizhN8Is7efGOO7LxjTvt8Y07/vGNOtbxjTrC8Y07//GNO//xjTv/8Y07//GNO//xjTv/8Y07//GNO//xjTv/8Y07//GNO//xjTv/8Y07//GNO//xjTv/74w5UPGOOljxjTvd8Y078vGNO/zxjTv88o07/PGNO/zwjTv28Y075vKNO8TwjDqZ8o47Y++LPEDyjDt68Y06xfGNOsLxjTv/8Y07//GNO//xjTv/8Y07//GNO//xjTv/8Y07//GNO//xjTv/8Y07//GNO//xjTv/8Y07//GNO//vjDlQ8I06afGNO//xjTv/8Y07//GNO//xjTv/8Y07//GNO//xjTv/8Y07//GNO//xjTv+8Y077vGMO470jjkt8Y06wvGNO//xjTv/8Y07//GNO//xjTv/8Y07//GNO//xjTv/8Y07//GNO//xjTv/8Y07//GNO//xjTv/8Y07/++MOVDwjTpp8Y07//GNO//xjTv/8Y07//GNO//xjTv/8Y07//GNO//xjTv/8Y07//GNO//xjTv/8Y47/vONO5PwjTrA8Y07+/GNO/vxjTv78Y07+/GNO/vxjTv78Y07+/GNO/zxjjv+8Y07//GNO//xjTv/8Y07//GNO//xjTv/74w5UPCNOmnxjTv/8Y07//GNO//xjTv/8Y07//GNO//xjTv/8Y07//GNO//xjTv/8Y07//GNO//xjTv/8Y061vCMNzPvijU/74o1P++KNT/vijU/74o1P++KNT/vijU/8Iw7RfCMO7bxjTv/8Y07//GNO//xjTv/8Y07//GNO//vjDlQ8o06ZfKNOuTxjTrW8Y06yvGNOsLwjTq68Y06vPCMO9PyjTvk8Y07+PGNO//xjTv/8Y07//GNO//xjTrWAAAAAAAAAAAAAAAAAAAAAAAAAAAAAAAAAAAAAAAAAAAAAAAA8Y45EvCNOs3xjTv/8Y07//GNO//xjTv/8Y07/++MOVDtiTcc9I48RPKNO07xjjxa8I45Y/GNOWvxjTlr8447VvCOOkbtjTk67os4TfGNOoTyjjvR8Y07+fGNOtYAAAAAAAAAAAAAAAAAAAAAAAAAAAAAAAAAAAAAAAAAAAAAAAAAAAAA8Iw3M/GNO97xjTvm8Y075vGNO+bxjTvm8Y86S/CMO2jyjTv78Y06/fGNOv7xjTr+8Y07/vGOO/7xjTr98Y07+/GNO+rwjTvB8I46jPGNO0rxjDlZ8Yw7st+AIAgAAAAAAAAAAAAAAAAAAAAAAAAAAAAAAAAAAAAAAAAAAAAAAAAAAAAA7ZI3Dt+AMBDfgDAQ34AwEN+AMBD/mTMF8ow6dvGNO//xjTv/8Y07//GNO//xjTv/8Y07//GNO//xjTv/8Y07//GNO//xjTv/8Y07+vGMO8PtjTs48o07Tv+qAAMAAAAAAAAAAAAAAAAAAAAAAAAAAAAAAAAAAAAAAAAAAAAAAAD/AAAB8Io5ZvCKOYfwijmH8Io5h/CMOozxjTvp8Y07//GNO//xjTv/8Y07//GNO//xjTv/8Y07//GNO//xjTv/8Y07//GNO//xjTv/8Y07//GNOrPwizp38Is8RAAAAAAAAAAAAAAAAAAAAAAAAAAAAAAAAAAAAAAAAAAAAAAAAP8AAAHxjDu28Y07//GNO//xjTv/8Y07//GNO//xjTv/8Y07//GNO//xjTv/8Y07//GNO//xjTv/8Y07//GNO//xjTv/8Y07//GNO//xjTv/8Y061vOLOkLyjTvl8o05TP9VAAMAAAAAAAAAAAAAAAD/kkkHAAAAAAAAAAAAAAAA/wAAAfGMO7bxjTv/8Y07//GNO/7xjTvt8Y061vGNOrnyjDqe8Y07k/KMO4ryjDyJ8ow7ivKMOp7wjDq+8Y072fGNO+/xjTv+8Y07//GNO//xjTrW/4suC/GNOtTxjTv18o46q/COPETtkjcO//8AAfGNOn/qijUYAAAAAAAAAAD/AAAB8Yw7tvGNO+3xjTuf8ow5UPCMPDPtijlI8o47Y/GNO4LyjDqZ8Iw5rfKNOqzxjDqi8Y06jfGOO2zvjDlQ8oo4O/KMOVDxjDqS8Yw75/GNO9UAAAAA8os8UfGMO/fxjTv/8o07+/GNOuDxjDqn8Y075u+NO5MAAAAAAAAAAP8AAAHxjTxr8Yw6NfSMO1vxjTu18Yw67PGNO/zxjTv+8Y07//GNO//xjTv/8Y07//GNO//xjTv/8Y07//GNO/zxjTv08Y06xfCMOXjwijgy8Y06gAAAAAD//wAB8Ys7bPGOO/XxjTv/8Y07//GNO//xjTv/8I079PCOOzQAAAAAAAAAAPKMOSjxjTrJ8Y07/PGNO//xjTv/8Y07//GNO//xjTv/8Y07//GNO//xjTv/8Y07//GNO//xjTv/8Y07//GNO//xjTv/8Y07/vCNO93yjjs9AAAAAAAAAAD/gAAC74w7UvGNOt/xjjv+8Y07//GNO//xjTv/8Y06uf+AKgYAAAAA8I07nPGNO//xjTv/8Y07//GNO//xjTv/8Y07//GNO//xjTv/8Y07//GNO//xjTv/8Y07//GNO//xjTv/8Y07//GNO//xjTv/8Y07//GNOsIAAAAAAAAAAAAAAAAAAAAA7I45G/CLOpbxjTr98Y07//GNO//xjTr98444Vv8AAAHxjDu28Y07//GNO//xjTv/8Y07//GNO//xjTv/8Y06/vGNOv7yjTr98Y06/vGNOv7xjTr+8Y07//GNO//xjTv/8Y07//GNO//xjTv/8Y061gAAAAAAAAAAAAAAAAAAAAAAAAAA9Y07SvGNO/LxjTrb8Yw6p/CMO2j2kjcc/wAAAfGMO7bxjTv/8Y07//GNO/HyjjzJ8I06mvGMOX7yjDpz8Ys6bvOMOGjujTlr8Y05cPKMOXjvjTmC8ow7oPCMO9PxjTvu8Y07/vGNO//xjTrWAAAAAAAAAAAAAAAAAAAAAAAAAAD0jjkt9I45LeiLLgsAAAAAAAAAAAAAAAD/AAAB8Yw6tPGMO8/wizt18Y07SvGNOV7yjjqZ8Y07w/GNO9nyjTvl8Yw67PGMO+7yjTvn8Y073fGMO8byjDqe74w4cfGMO1vxjTpc8ow7svCMO9EAAAAAAAAAAAAAAAAAAAAAAAAAAAAAAAAAAAAAAAAAAAAAAAAAAAAAAAAAAP8AAAHwijpG8o05TPGMO7LxjTvz8Y07/fGNO//xjTv/8Y07//GNO//xjTv/8Y07//GNO//xjTv/8Y07//GNO//xjjv+8Y06+vGNOsrzjTln74s5UQAAAAAAAAAAAAAAAAAAAAAAAAAAAAAAAAAAAAAAAAAAAAAAAAAAAAAAAAAAAAAAAPGNOlzxjTv08Y07//GNO//xjTv/8Y07//GNO//xjTv/8Y07//GNO//xjTv/8Y07//GNO//xjTv/8Y07//GNO//xjTv/8Y07//GNO/zxjTqAAAAAAAAAAAAAAAAAAAAAAAAAAAAAAAAAAAAAAAAAAAAAAAAAAAAAAAAAAAAAAAAA8446kPGNO//xjTv/8Y07//GNO//xjTv/8Y07//GNO//xjTv/8Y07//GNO//xjTv/8Y07//GNO//xjTv/8Y07//GNO//xjTv/8Y07//CNOsEAAAAAAAAAAAAAAAAAAAAAAAAAAAAAAAAAAAAAAAAAAAAAAAAAAAAAAAAAAAAAAADshDkb8Yw7w/GNO/7xjTv/8Y07//GNO//xjTv/8Y07//GNO//xjTv/8Y07//GNO//xjTv/8Y07//GNO//xjTv/8Y07//KNO/vxjDvI9I86MAAAAAAAAAAAAAAAAAAAAAAAAAAAAAAAAAAAAAAAAAAAAAAAAAAAAAAAAAAAAAAAAAAAAADoiy4L8Iw6VPCMOq/yjDrj8Y07+/GNO//xjTv/8Y07//GNO//xjTv/8Y07//GNO//xjTv/8Y079PGNO+DxjDuk8486QuiLLgsAAAAAAAAAAAAAAAAAAAAAAAAAAAAAAAAAAAAAAAAAAAAAAAAAAAAAAAAAAAAAAAAAAAAAAAAAAAAAAAAAAAAAAAAAAeOAORLyizo58os6T/KOOmHyjjpz8Is6hPKNOYbxjTqE8Ys5cPCMOlTuizos6IsuCwAAAAAAAAAAAAAAAAAAAAAAAAAAAAAAAAAAAAAAAAAAAAAAAAAAAAAAAAAAAAAAAAAAAAAAAAAAAAAAAAAAAAAAAAAAAAAAAAAAAAAAAAAAAAAAAAAAAAAAAAAAAAAAAAAAAAAAAAAAAAAAAAAAAAAAAAAAAAAAAAAAAAAAAAAAAAAAAAAAAAAAAAAAAAAAAAAAAAAAAAAAAAAAAAAAAAAAAAAAAAAAAAAAAAAAAAAAAAAAAAAAAAAAAAAAAAAAAAAAAAAAAAAAAAAAAAAAAAAAAAAAAAAAAAAAAAAAAAAAAAAAAAAAAAAAAAAAAAAAAAAAAAAAAAAAAAAAAAAAAAAAAAAAAAAAAAAAAAAAAAAAKAAAADAAAABgAAAAAQAgAAAAAAAAAAAAAAAAAAAAAAAAAAAAAAAAAPKMO4fxjDvX8Yw71/GMO9fxjDvX8Yw71/GMO9fxjDvX8Yw71/GMO9fxjDvX8Yw71/GMO9fxjDvX8Yw71/GMO9fxjDvX8Yw71/GMO9fxjDvX8Yw71/GMO9fxjDvX8Yw71/KMOnb/qgADAAAAAAAAAAAAAAAAAAAAAAAAAAAAAAAAAAAAAAAAAAAAAAAAAAAAAAAAAAAAAAAAAAAAAAAAAAAAAAAAAAAAAAAAAAAAAAAAAAAAAAAAAAAAAAAAAAAAAPCMOpnxjTr+8Y06/vGNOv7xjTr+8Y06/vGNOv7xjTr+8Y06/vGNOv7xjTr+8Y06/vGNOv7xjTr+8Y06/vGNOv7xjTr+8Y06/vGNOv7xjTr+8Y06/vGNOv7xjTr+8Y06/vONOoD/qgADAAAAAAAAAAAAAAAAAAAAAAAAAAAAAAAAAAAAAAAAAAAAAAAAAAAAAAAAAAAAAAAAAAAAAAAAAAAAAAAAAAAAAAAAAAAAAAAAAAAAAAAAAAAAAAAAAAAAAPCMOpnxjTv/8Y07//GNO//xjTv/8Y07//GNO//xjTv/8Y07//GNO//xjTv/8Y07//GNO//xjTv/8Y07//GNO//xjTv/8Y07//GNO//xjTv/8Y07//GNO//xjTv/8Y07//ONOoD/qgADAAAAAP+AAALoiy4L85I9Fe2JNxz3jDof8IozI+uNNibwizYh9ZM7GvKGNhP/gDMK/wAAAQAAAAAAAAAAAAAAAAAAAAAAAAAAAAAAAAAAAAAAAAAAAAAAAPCMOpnxjTv/8Y07//GNO//xjTv/8Y07//GNO//xjTv/8Y07//GNO//xjTv/8Y07//GNO//xjTv/8Y07//GNO//xjTv/8Y07//GNO//xjTv/8Y07//GNO//xjTv/8Y07//ONOoD/jjkJ8Iw6VPKMOY7xjTuo8Y06vPCNOsvwjTrS8Y072fCMO97xjDvV8Y07x/CNO7nwjTqm8Is7hvKOPGHyjjs99484IP+HPBH/mTMF/wAAAQAAAAAAAAAAAAAAAPCMOpnxjTv/8Y07//GNO//xjTv/8Y07//GNO//xjTv/8Y07//GNO//xjTv/8Y07//GNO//xjTv/8Y07//GNO//xjTv/8Y07//GNO//xjTv/8Y07//GNO//xjTv/8Y07//ONOoDtkjcO8Y07n/KOO/zxjTv/8Y07//GNO//xjTv/8Y07//GNO//xjTv/8Y07//GNO//xjTv/8Yw7+/GNOvDyjTvk8Iw70/CNO6rxjDtx8Y49NuuJOw3/AAABAAAAAPCMOpnxjTv/8Y07//GNO//xjTv/8Y07//GNO//xjTv/8Y07//GNO//xjTv/8Y07//GNO//xjTv/8Y07//GNO//xjTv/8Y07//GNO//xjTv/8Y07//GNO//xjTv/8Y07//ONOoDtkjcO74w6ovGNO//xjTv/8Y07//GNO//xjTv/8Y07//GNO//xjTv/8Y07//GNO//xjTv/8Y07//GNO//xjTv/8Y07//KOO/zxjTv08o072/ONO5Luizos//8AAfCMOpnxjTv/8Y07//GNO//xjTz/855Y//fCl//3w5n/86Jf//OeWf/zpGP/9KZm//fEmf/3v5D/9K1z//fAkv/2toD/9bR+//OfWv/1tYH/97+S//KZT//xjTv/8Y07//ONOoDtkjcO74w6ovGNO//xjTv/8Y07//GNO//xjTv/8Y07//GNO//xjTv/8Y07//GNO//xjTv/8Y07//GNO//xjTv/8Y07//GNO//xjTv/8Y07//GNO/zwjTq87Yw9KvCMOpnxjTv/8Y07//GNO//xkUL/98KX//SlZf/zoV3/98KW//Soaf/0q3D/9bN8//a6iP/3xJr/97+R//Wwd//zoV3/9r+R//Wwd//2v5H/9bB4//OiX//xjTv/8Y07//ONOoDtkjcO74w6ovGNO//xjTv/8Y07//GNO//xjTv/8Y07//GNO//xjTv/8Y07//GNO//xjTv/8Y07//GNO//xjTv/8Y07//GNO//xjTv/8Y07//GNO//xjTv48Y06gPCMOpnxjTv/8Y07//GNO//ylkr/98Wc//GPPv/xkED/+Mac//Stcv/0rnP/8plQ//Wvdv/3wZT/98GV//OmZ//xkUL/9ruL//Wzfv/3wpb/9rmH//a3hP/xjTv/8Y07//ONOoDtkjcO74w6ovGNO//xjTv/8Y07//GNO//xjTv/8Y07//GNO//xjTv/8Y07//GNO//xjTv/8Y07//GNO//xjTv/8Y07//GNO//xjTv/8Y07//GNO//xjTv/8Y45tvCMOpnxjTv/8Y07//GNO//xlEj/+Mae//GUR//ylEf/+Mad//WscP/3vY7/9Khq//e7i//1t4X/9Kpv//a8jP/1tYD/98GW//Spa//1t4T/9riG//SlZP/xjTv/8Y07//ONOoDtkjcO74w6ovGNO//xjTv88Y07+PCNO/bxjjv18Y479fGOO/Xxjjv18Yw79/KNO/nxjTv88Y07/vGNO//xjTv/8Y07//GNO//xjTv/8Y07//GNO//xjTv/8I45u/CMOpnxjTv/8Y07//GNO//xjz7/9rWA//a7iv/2uIb/9riF//KWS//zoF3/8pZL//SjYv/znVf/8ZBA//OhXv/znVf/9rqJ//OeWf/znVb/9KJf//GPPv/xjTv/8Y07//ONOoDqlSoM8I47dfGMOqfwjTuY8Y08hPCMOXjwizp38I06d/KNOnfwjDl48Yw7fvCMOYrxjTyW8Yw7pPGMO7vxjTrW8Yw78PKNO/nxjTv98Y07//GNO//xjTv/8I45u/CMOpnxjTv/8Y07//GNO//xjTv/8ZFE//OgXf/zoV7/8pRH//GNO//xjTv/8Y07//GNO//xjTv/8Y07//GNO//xjTv/8phQ//GRQv/xjTv/8Y07//GNO//xjTv/8Y07//ONOoDUgCoG9ok3HPiOOSTzjDcq7405MfGNNzjvjTdB8Y07Su+MO1LxjzpL8ow7PPCMPDP0jTwv84k4KfKJOyfviDYv7407Qe+NOnLwjDu98o476PGNOv3xjTv/8I45u/CMOpnxjTv/8Y07//GNO//xjTv/8Y07//GNO//xjTv/8Y07//GNO//xjTv/8Y07//GNO//xjTv/8Y07//GNO//xjTv/8Y07//GNO//xjTv/8Y07//GNO//xjTv/8Y07//ONOoDqlUAM8o47dfCNO8HxjDvY8Y077/KNOvrxjDr78Yw7+/KMO/vxjDv78Yw6+/GNO/PxjTvm8Yw6zvGNO6jxjjuB8Yw6Xe2LOjnxkTcl7ow7SfONOpLxjTvh8Y06uPCMOpnxjTv/8Y07//GNO//xjTv/8Y07//GNO//xjTv/8Y07//GNO//xjTv/8Y07//GNO//xjTv/8Y07//GNO//xjTv/8Y07//GNO//xjTv/8Y07//GNO//xjTv/8Y07//ONOoDtkjcO74w6ovGNO//xjTv/8Y07//GNO//xjTv/8Y07//GNO//xjTv/8Y07//GNO//xjTv/8Y07//GNO//xjDv78Y077/GNO9/wjDu78Y07gvOLPEDwjTlV8Y06f/CMOpnxjTv/8Y07//GNO//xjTv/8Y07//GNO//xjTv/8Y07//GNO//xjTv/8Y07//GNO//xjTv/8Y07//GNO//xjTv/8Y07//GNO//xjTv/8Y07//GNO//xjTv/8Y07//ONOoDtkjcO74w6ovGNO//xjTv/8Y07//GNO//xjTv/8Y07//GNO//xjTv/8Y07//GNO//xjTv/8Y07//GNO//xjTv/8Y07//GNO//xjTv98Yw79/GNO9TwjTln9IU3F/CMOpnxjTv/8Y07//GNO//xjTv/8Y07//GNO//xjTv/8Y07//GNO//xjTv/8Y07//GNO//xjTv/8Y07//GNO//xjTv/8Y07//GNO//xjTv/8Y07//GNO//xjTv/8Y07//ONOoDtkjcO74w6ovGNO//xjTv/8Y07//GNO//xjTv/8Y07//GNO//xjTv/8Y07//GNO//xjTv/8Y07//GNO//xjTv/8Y07//GNO//xjTv/8Y07//GNO//xjTzi8Ys6S/CMOpnxjTv/8Y07//GNO//xjTv/8Y07//GNO//xjTv/8Y07//GNO//xjTv/8Y07//GNO//xjTv/8Y07//GNO//xjTv/8Y07//GNO//xjTv/8Y07//GNO//xjTv/8Y07//ONOoDtkjcO74w6ovGNO//xjTv/8Y07//GNO//xjTv/8Y07//GNO//xjTv/8Y07//GNO//xjTv/8Y07//GNO//xjTv/8Y07//GNO//xjTv/8Y07//GNO//xjTr98Y06o/CMO5fxjTr58Y06+fGNOvnxjTr58Y06+fGNOvnxjTr58Y06+fGNOvnxjTr58Y06+fGNOvnxjTz88Y07//GNO//xjTv/8Y07//GNO//xjTv/8Y07//GNO//xjTv/8Y07//ONOoDtkjcO74w6ovGNO//xjTv/8Y07//GNO//xjTv/8Y07//GNO//xjTv/8Y07//GNO//xjTv/8Y07//GNO//xjTv/8Y07//GNO//xjTv/8Y07//GNO//xjTv/8Iw5u/GMOUfwjDdm8Iw3ZvCMN2bwjDdm8Iw3ZvCMN2bwjDdm8Iw3ZvCMN2bwjDdm8Iw3ZvCNOmnwjDqZ8Y076vGNO//xjTv/8Y07//GNO//xjTv/8Y07//GNO//xjTv/8Y07//ONOoDtkjcO8Y07n/GNO/fwjTv08I078fGMO+7xjTvq8Y075vCOOuPwjTrg8o075vGNO+/xjTvz8Y079/KNO/vxjTv/8Y07//GNO//xjTv/8Y07//GNO//xjTv/8I45u4CAAAL/gAAC/4AAAv+AAAL/gAAC/4AAAv+AAAL/gAAC/4AAAv+AAAL/gAAC/4AAAv+AAALxjjkS8ow6c/GNO/DxjTv/8Y07//GNO//xjTv/8Y07//GNO//xjTv/8Y07//ONOoD/mTMK9I47X/GMOYHxjDlv8ow4X++MOFLuizhN8Yw7SfCKN0bzizpC8Yw7SfGMOVnvjDpt8Yw7gfKOOpnxjDuy8Y07x/KNOuTxjTv68Y07/vGNO//xjTv/8I45uwAAAAAAAAAAAAAAAAAAAAAAAAAAAAAAAAAAAAAAAAAAAAAAAAAAAAAAAAAAAAAAAAAAAAAAAAAA64k7De+MOpDxjDr58Y07//GNO//xjTv/8Y07//GNO//xjTv/8Y07//ONOoDUgCoG84k4KfKNO07yizlj9I06d/GNOo3wjTuY8Y47oPGNOqjyjTyv8Iw6pvKNOonxjDpt8o48Te6QPS7yiTsn7Ik4KfOMOj7xjjx88Y47yPGNO/Dxjjv+8I45uwAAAAAAAAAAAAAAAAAAAAAAAAAAAAAAAAAAAAAAAAAAAAAAAAAAAAAAAAAAAAAAAAAAAAAAAAAAAAAAAOiLNiHxjTq58Y479fGMO/fxjDv38Yw79/GMO/fxjDv38Yw79/GOO37tkjcO8Iw6nfGNOvnxjTr68Y07/PGMOv3xjTr98Y06/fGNOv7xjjv+8Y06/vGNO/zxjTv78Yw6+fKOO+bzjTu68o88jfKOO2Psizg38Yo3Je+MOF/yjTvH8Y46tAAAAAAAAAAAAAAAAAAAAAAAAAAAAAAAAAAAAAAAAAAAAAAAAAAAAAAAAAAAAAAAAAAAAAAAAAAAAAAAAP+qVQPvjDo+8o46c/KMOnbyjDp28ow6dvKMOnbyjDp28ow6dvCLOkL/lUAM74w6ovGNO//xjTv/8Y07//GNO//xjTv/8Y07//GNO//xjTv/8Y07//GNO//xjTv/8Y07//GNO//xjTv/8Y47/vCNO/PxjTvZ8o07rvONOmnyjTxM8o05Yv+LLgv/kkkHAAAAAAAAAAAAAAAAAAAAAAAAAAAAAAAAAAAAAAAAAAAAAAAAAAAAAAAAAAAAAAAAAAAAAAAAAAD/gAAC/5kzBf+ZMwX/mTMF/5kzBf+ZMwX/mTMF/5kzBf+qVQPzizoW8Y07tfGNO//xjTv/8Y07//GNO//xjTv/8Y07//GNO//xjTv/8Y07//GNO//xjTv/8Y07//GNO//xjTv/8Y07//GNO//xjTv/8o47/PKNO+7xjTuh8Yo+JfWNOTHzizosAAAAAQAAAAAAAAAAAAAAAAAAAAAAAAAAAAAAAAAAAAAAAAAAAAAAAAAAAAAAAAAAAAAAAAAAAAAAAAAA//8AAfGHOjXuiDhN7og4Te6IOE3uiDhN7og4Te+MOVDwjDqM8Y078vGNO//xjTv/8Y07//GNO//xjTv/8Y07//GNO//xjTv/8Y07//GNO//xjTv/8Y07//GNO//xjTv/8Y07//GNO//xjTv/8Y07//GNO//wjTv28Y07cPGMO0nwjTln/4AqBgAAAAAAAAAAAAAAAAAAAAAAAAAAAAAAAAAAAAAAAAAAAAAAAAAAAAAAAAAAAAAAAAAAAAAAAAAA/4AAAvGLOoDxjDvu8Yw77vGMO+7xjDvu8Yw77vGNO+/yjTv28o47/vGNO//xjTv/8Y07//GNO//xjTv/8Y07//GNO//xjTv/8Y07//GNO//xjTv/8Y07//GNO//xjTv/8Y07//GNO//xjTv/8Y07//GNO//xjjv+8Y06te6MNzzxjTqz64k7NP8AAAEAAAAAAAAAAAAAAAAAAAAAAAAAAAAAAAAAAAAAAAAAAAAAAAAAAAAAAAAAAAAAAAAAAAAA/4AAAvKNO4bxjTv/8Y07//GNO//xjTv/8Y07//GNO//xjTv/8Y07//GNO//xjTv/8Y07//GNO//xjTv/8Y07//GNO//xjTv/8Y07//GNO//xjTv/8Y07//GNO//xjTv/8Y07//GNO//xjTv/8Y07//GNO//xjTv/8I45u/aSQBzxjDvI8ow7w+6MOzz/kiQHAAAAAAAAAAAAAAAAAAAAAAAAAAD/AAAB/6pVAwAAAAAAAAAAAAAAAAAAAAAAAAAA/4AAAvKNO4bxjTv/8Y07//GNO//xjTv/8Y07//GNO/vwjTv18Iw78PKNOuTxjTrX8Yw6z/GNO8vxjjrG8Y07xPGNO8TxjTvE7406xfCMOs7xjDra8Yw75/GNO/HyjTv28Y07+/GNO//xjTv/8Y07//GNO//xjTv/8I45u/+LRgvxjTqW8Y07+vCMO9HxjTpu8ow5KNSAKgYAAAAAAAAAAAAAAAD/iTsN8I46RqpVAAMAAAAAAAAAAAAAAAAAAAAA/4AAAvKNO4bxjTv/8Y07//KNO/rxjTvh8Yw7u/GMO5fyjjpz8Y45WvGMOUfuijs984s8QPCKOkbxjTtK74s5UfKLOk/1jDhJ8Iw7RfGMOUfxjDlH8Ys6S/GKOV7wizp78o07mPGOO7vxjDra8o079/GOO/7xjTv/8I45u/+AAALyjThO8Y075/GNO/7xjTrw8Y07zPGMOoP1jjs05IY2E/+AQATujjkt8o07wfKOOz3/AAABAAAAAAAAAAAAAAAA/4AAAvKNO4bxjTv68Y081fGMO37vijk/8Y45JPKGPCbxjDtJ8Iw6dvGMO5fyjTux8o06wPKOOsnyjTzS8Y062/GMOtrxjTvV8Iw70fGMO8jxjTu58I07pfGMO4HwjDpU74g8L+2MNyrxizg38os6cvGNOsnxjjr18Y06ugAAAADvj0AQ8Iw6nvKNO/rxjTv/8Y07//KNO/vyjTvr8I06vvOOO37yjTqN8Yw78vCNOq/zhj0VAAAAAAAAAAAAAAAA/4AAAvGMO3HxjDuO74o6MPiKOiPxizpY8I06mvGNO9TxjTv08Y07+vGNOv3xjTv/8Y07//GNO//xjTv/8Y07//GNO//xjTv/8Y07//GNO//xjTv/8Y07/vGNO/vxjTv38Yw66fKNO7HxjDpt7Y05OvGRNyXwjTt58Y06nwAAAAAAAAAA8Y45JPKMO63xjTv48Y07//GNO//xjTv/8Y07//KOPPzwjTv28Y07/vGNO+7vjDtf/4BABAAAAAAAAAAA/wAAAfiOPCLuizos8Is7dfCNOsDxjDrs8Y07/vGNO//xjTv/8Y07//GNO//xjTv/8Y07//GNO//xjTv/8Y07//GNO//xjTv/8Y07//GNO//xjTv/8Y07//GNO//xjTv/8Y07//GNO//xjjv18ow72PKMO47zjjk/7ow3PAAAAAAAAAAA/wAAAfKJOyfyjjut8Yw7+fGNO//xjTv/8Y07//GNO//xjTv/8Y07//GNO/7yjTu+7Y0+HQAAAAAAAAAAAAAAAOuAOxrxjTqj8Y078fGNO/7xjTv/8Y07//GNO//xjTv/8Y07//GNO//xjTv/8Y07//GNO//xjTv/8Y07//GNO//xjTv/8Y07//GNO//xjTv/8Y07//GNO//xjTv/8Y07//GNO//xjTv/8Y07//KNO/fwjDu/+I08JgAAAAAAAAAAAAAAAP//AAHwijoj8Iw6nfGNO+3xjTr98Y07//GNO//xjTv/8Y07//GNO//xjDv38Yw7cf+qVQMAAAAAAAAAAPCLO1bxjTvx8Y07//GNO//xjTv/8Y07//GNO//xjTv/8Y07//GNO//xjTv/8Y07//GNO//xjTv/8Y07//GNO//xjTv/8Y07//GNO//xjTv/8Y07//GNO//xjTv/8Y07//GNO//xjTv/8Y07//GNO//xjTv68Iw6jAAAAAAAAAAAAAAAAAAAAAD/AAAB54Y9FfKOOmHwjDrB8Y079PGNO//xjTv/8Y07//GNO//xjjv+8Yw73vGMOjUAAAAA/4AAAvGLO4LxjTv+8Y07//GNO//xjTv/8Y07//GNO//xjTv/8Y07//GNO//xjTv/8Y07//GNO//xjTv/8Y07//GNO//xjTv/8Y07//GNO//xjTv/8Y07//GNO//xjTv/8Y07//GNO//xjTv/8Y07//GNO//xjTv/8I06uQAAAAAAAAAAAAAAAAAAAAAAAAAAAAAAAMyZMwXxij4l8I08iPGNO/nxjTv/8Y07//GNO//xjTv/8Y06/fGNO6H/iDMP/4AAAvKNO4bxjTv/8Y07//GNO//xjTv/8Y07//GNO//xjTv/8Y07//GNO//xjTv/8o06/fGNOv3xjTr98o07/PGMOv3xjTr98Y06/fGNOv7xjTv/8Y07//GNO//xjTv/8Y07//GNO//xjTv/8Y07//GNO//xjTv/8I45uwAAAAAAAAAAAAAAAAAAAAAAAAAAAAAAAAAAAAD/gAAC8o05YvKNOvbxjTv48Y477/CMO97xjTvC8Yw6lfSLOET/gCoG/4AAAvKNO4bxjTv/8Y07//GNO//xjTv+8o07+PGMO+7xjTvc8Y47y/CMOsHxjTqz8Y07ofCLPJbwjDqM74w4g/GNOoTxjDmO8Y47l/GNOaXxjDq48Y07w/GNO87xjTvi8I078vKNO/jxjTr98Y07//GNO//xjTv/8I45uwAAAAAAAAAAAAAAAAAAAAAAAAAAAAAAAAAAAADoiy4L8Y06hPKMOqvyjTuG7os6XO2NOTrzkj0V/4AqBv+AAAIAAAAA/4AAAvKNO4bxjTv/8Y07/fGNO+nwjTu+8I07i/GLOVrxjTtK8o05TPKOOVHxijxe8o06cvGLOoDyjTuG8Ys6jfGMOZDwjDuK8Yw6g/KNOXnyjTpl8I47VvONOlPxizla7ow4aPCNOojyjTus8Y071fKNO/jxjjv+8I45uwAAAAAAAAAAAAAAAAAAAAAAAAAAAAAAAAAAAAD/gEAE74c4IPKGNhP/jjkJ/4AAAgAAAAAAAAAAAAAAAAAAAAAAAAAA/4AAAvKMOoXxjTzn8I06mu6OOE3xjjk284w6VPKNO4bxjDq08o060vGNO+bxjTvv8Y078/KNO/byjTv38Y07+fKNO/nyjTv48Yw79/CNO/XxjTvw8Y076PGNO9XyjDq98ow7oPCNOnfzjzpC8o86OfGLOm7xjTvM8Iw6uAAAAAAAAAAAAAAAAAAAAAAAAAAAAAAAAAAAAAAAAAAAAAAAAAAAAAAAAAAAAAAAAAAAAAAAAAAAAAAAAAAAAAAAAAAA//8AAfGLPFrzjzpU8ZA6Ne+NOnLxjTvD8Y078vGNO/vxjTv/8Y07//GNO//xjTv/8Y07//GNO//xjTv/8Y07//GNO//xjTv/8Y07//GNO//xjTv/8Y07//GNO//xjTv/8Y06/vGMOvnxjTrf8Y07kvGMOUfwjTlD8448fAAAAAAAAAAAAAAAAAAAAAAAAAAAAAAAAAAAAAAAAAAAAAAAAAAAAAAAAAAAAAAAAAAAAAAAAAAAAAAAAAAAAAAAAAAAAAAAAPOLOhbyjTli8Yw6xvGMO/fxjTv/8Y07//GNO//xjTv/8Y07//GNO//xjTv/8Y07//GNO//xjTv/8Y07//GNO//xjTv/8Y07//GNO//xjTv/8Y07//GNO//xjTv/8Y07//GNO//xjTv/8Y07/PCNO+HyjTqI8oY2JgAAAAAAAAAAAAAAAAAAAAAAAAAAAAAAAAAAAAAAAAAAAAAAAAAAAAAAAAAAAAAAAAAAAAAAAAAAAAAAAAAAAAAAAAAAAAAAAPCLOETwjTrf8Y07/fGNO//xjTv/8Y07//GNO//xjTv/8Y07//GNO//xjTv/8Y07//GNO//xjTv/8Y07//GNO//xjTv/8Y07//GNO//xjTv/8Y07//GNO//xjTv/8Y07//GNO//xjTv/8Y07//GNO//xjTrw8o47dQAAAAAAAAAAAAAAAAAAAAAAAAAAAAAAAAAAAAAAAAAAAAAAAAAAAAAAAAAAAAAAAAAAAAAAAAAAAAAAAAAAAAAAAAAAAAAAAPKMO2TxjTv68Y07//GNO//xjTv/8Y07//GNO//xjTv/8Y07//GNO//xjTv/8Y07//GNO//xjTv/8Y07//GNO//xjTv/8Y07//GNO//xjTv/8Y07//GNO//xjTv/8Y07//GNO//xjTv/8Y07//GNO//xjTv+8Iw7qQAAAAAAAAAAAAAAAAAAAAAAAAAAAAAAAAAAAAAAAAAAAAAAAAAAAAAAAAAAAAAAAAAAAAAAAAAAAAAAAAAAAAAAAAAAAAAAAPOOOyvxjDrG8Y06/fGNO//xjTv/8Y07//GNO//xjTv/8Y07//GNO//xjTv/8Y07//GNO//xjTv/8Y07//GNO//xjTv/8Y07//GNO//xjTv/8Y07//GNO//xjTv/8Y07//GNO//xjTv/8Y07//GNO/3xjTvd8Y06XAAAAAAAAAAAAAAAAAAAAAAAAAAAAAAAAAAAAAAAAAAAAAAAAAAAAAAAAAAAAAAAAAAAAAAAAAAAAAAAAAAAAAAAAAAAAAAAAP+AQATxjDlH8Iw7v/GNO/zxjTv/8Y07//GNO//xjTv/8Y07//GNO//xjTv/8Y07//GNO//xjTv/8Y07//GNO//xjTv/8Y07//GNO//xjTv/8Y07//GNO//xjTv/8Y07//GNO//yjjv+8o079vGNO8LwiztW/5kzCgAAAAAAAAAAAAAAAAAAAAAAAAAAAAAAAAAAAAAAAAAAAAAAAAAAAAAAAAAAAAAAAAAAAAAAAAAAAAAAAAAAAAAAAAAAAAAAAAAAAAD/gAAC7Yk3HPGOOmrxjDu78Y074fGNO/PyjTv68Y07//GNO//xjTv/8Y07//GNO//xjTv/8Y07//GNO//xjTv/8Y07//GNO//xjTv/8Y07//KOO/zyjTv48I078/CNO97zjTuo8I06U/WJOxr/qlUDAAAAAAAAAAAAAAAAAAAAAAAAAAAAAAAAAAAAAAAAAAAAAAAAAAAAAAAAAAAAAAAAAAAAAAAAAAAAAAAAAAAAAAAAAAAAAAAAAAAAAAAAAAAAAAAAAAAAAMxmMwX1iTsa74s4QO6KOWvxjDmX8Y06vPGNO8fxjDvP8o071/GOOt/xjDvn8Y067fGNOu3xjTrt8Y076/GOO+HxjTrW8Y07x/CNO6ryjTuG8I47Y/KKPTv/j0AQ/4AAAgAAAAAAAAAAAAAAAAAAAAAAAAAAAAAAAAAAAAAAAAAAAAAAAAAAAAAAAAAAAAAAAAAAAAAAAAAAAAAAAAAAAAAAAAAAAAAAAAAAAAAAAAAAAAAAAAAAAAAAAAAAAAAAAAAAAAAAAAAAAAAAAL+AQATriTsN84s6FueHOCDziTgp8Iw8M/KMNzzwijpG8os4Te+NOE7vjThO8Y86S/OKOT/wijgy8Is2IfCHPBH/jjkJ/4AAAgAAAAAAAAAAAAAAAAAAAAAAAAAAAAAAAAAAAAAAAAAAAAAAAAAAAAAAAAAAAAAAAAAAAAAAAAAAAAAAAAAAAAAAAAAAAAAAAAAAAAAAAAAAAAAAAAAAAAAAAAAAAAAAAAAAAAAAAAAAAAAAAAAAAAAAAAAAAAAAAAAAAAAAAAAAAAAAAAAAAAAAAAAAAAAAAAAAAAAAAAAAAAAAAAAAAAAAAAAAAAAAAAAAAAAAAAAAAAAAAAAAAAAAAAAAAAAAAAAAAAAAAAAAAAAAAAAAAAAAAAAAAAAAAAAAAAAAAAAAAAAAAAAAAAAAAAAAAAAAAAAAAAAAAAAAAAAAAAAAAAAAAAAAAAAAAAAAAAAAAAAAAAAAAAAAAAAAAAAAAAAAAAAAAAAAAAAAAAAAAAAAAAAAAAAAAAAAAAAAAAAAAAAAAAAAAAAAAAAAAAAAAAAAAAAAAAAAAAAAAAAAAAAAAAAAAAAAAAAAAAAAAAAAAAAAAAAAAAAAAAAAAAAAAAAAAAAAAAAAAAAAAAAAAAAAAAAAAAAAAAAAAAAAAAAAAAAAAAAAAAAAAAAAAAAAAAAAAAAAAAAAAAAAAAAAAAAAAAAAAAAAAAAAAAAAAAAAAAAAAAAAAAAAAAAAAAAAAAAAAAAAAAAAAAAAAAAAAAAAAAAAAAAAAAAAAAAAAAAAAAAAAAAAAAAAAAAAAAAAAAAAAAAAAAAAAAAAAAAAAAAAAAAAAAAAAAAAAAAAAAAAAAAAAAAAAAAAAAAAAAAAAAAAAAAAAAAAAAAAAAAAAAAAAAAAAAAAAAAAAA==;" parent="1" vertex="1">
          <mxGeometry x="256" y="192" width="28" height="28" as="geometry" />
        </mxCell>
        <mxCell id="nf3lBswdtWotKVPZDMRZ-14" value="" style="strokeColor=#dddddd;shadow=1;strokeWidth=1;rounded=1;absoluteArcSize=1;arcSize=2;" vertex="1" parent="1">
          <mxGeometry x="24" y="371" width="192" height="60" as="geometry" />
        </mxCell>
        <mxCell id="nf3lBswdtWotKVPZDMRZ-15" value="Network Endpoint&amp;nbsp;&lt;div&gt;Group (NEG)&lt;/div&gt;" style="editableCssRules=.*;html=1;fontColor=#999999;shape=image;verticalLabelPosition=middle;verticalAlign=middle;labelPosition=right;align=left;spacingLeft=20;part=1;points=[];imageAspect=0;image=data:image/svg+xml,PHN2ZyB4bWxucz0iaHR0cDovL3d3dy53My5vcmcvMjAwMC9zdmciIHhtbG5zOnY9Imh0dHBzOi8vdmVjdGEuaW8vbmFubyIgd2lkdGg9IjE5Ljk5OTk5ODA5MjY1MTM2NyIgaGVpZ2h0PSIyMCIgdmlld0JveD0iMCAtMi44NDIxNzA1NjE4NzU1NzQ1ZS0xNSAxOS45OTk5OTgwOTI2NTEzNjcgMjAiPiYjeGE7CTxzdHlsZSB0eXBlPSJ0ZXh0L2NzcyI+JiN4YTsJLnN0MHtmaWxsOiM0Mjg1ZjQ7fSYjeGE7CS5zdDF7ZmlsbDojNjY5ZGY2O30mI3hhOwk8L3N0eWxlPiYjeGE7CTxwYXRoIGNsYXNzPSJzdDEiIGQ9Ik0xNS40OSAxMC40djYuN2EuNC40IDAgMCAxLS40LjRIMi45YS40LjQgMCAwIDEtLjQtLjRWNC45YS40LjQgMCAwIDEgLjQtLjRoNi43YS40LjQgMCAwIDAgLjQtLjRWMi40YS40LjQgMCAwIDAtLjQtLjRILjRhLjQuNCAwIDAgMC0uNC40djE3LjJhLjQuNCAwIDAgMCAuNC40aDE3LjJhLjQuNCAwIDAgMCAuNC0uNHYtOS4yYS40LjQgMCAwIDAtLjQtLjRoLTEuNzFhLjQuNCAwIDAgMC0uNC40eiIvPiYjeGE7CTxwYXRoIGNsYXNzPSJzdDAiIGQ9Ik0xMiAuNHY3LjJhLjQuNCAwIDAgMCAuNC40aDcuMmEuNC40IDAgMCAwIC40LS40Vi40YS40LjQgMCAwIDAtLjQtLjRoLTcuMmEuNC40IDAgMCAwLS40LjR6bTUuNiA0LjFoLTEuNzFhLjQuNCAwIDAgMS0uNC0uNFYyLjRhLjQuNCAwIDAgMSAuNC0uNGgxLjcxYS40LjQgMCAwIDEgLjQuNHYxLjdhLjQuNCAwIDAgMS0uNC40eiIvPiYjeGE7PC9zdmc+;" vertex="1" parent="nf3lBswdtWotKVPZDMRZ-14">
          <mxGeometry width="30" height="30" relative="1" as="geometry">
            <mxPoint x="15" y="15" as="offset" />
          </mxGeometry>
        </mxCell>
        <mxCell id="nf3lBswdtWotKVPZDMRZ-17" value="" style="endArrow=classic;html=1;rounded=0;exitX=0.5;exitY=1;exitDx=0;exitDy=0;" edge="1" parent="1" source="P5Zhf72EWf0H4dP_nzBQ-16" target="nf3lBswdtWotKVPZDMRZ-14">
          <mxGeometry width="50" height="50" relative="1" as="geometry">
            <mxPoint x="-170" y="510" as="sourcePoint" />
            <mxPoint x="-120" y="460" as="targetPoint" />
          </mxGeometry>
        </mxCell>
        <mxCell id="nf3lBswdtWotKVPZDMRZ-18" value="" style="endArrow=classic;html=1;rounded=0;entryX=0;entryY=0.75;entryDx=0;entryDy=0;" edge="1" parent="1" target="P5Zhf72EWf0H4dP_nzBQ-14">
          <mxGeometry width="50" height="50" relative="1" as="geometry">
            <mxPoint x="220" y="394" as="sourcePoint" />
            <mxPoint x="270" y="340" as="targetPoint" />
          </mxGeometry>
        </mxCell>
      </root>
    </mxGraphModel>
  </diagram>
  <diagram id="akx8GzgvXtYmYSL7PfPP" name="GCE">
    <mxGraphModel dx="1893" dy="1027" grid="1" gridSize="10" guides="1" tooltips="1" connect="1" arrows="1" fold="1" page="1" pageScale="1" pageWidth="850" pageHeight="1100" math="0" shadow="0">
      <root>
        <mxCell id="0" />
        <mxCell id="1" parent="0" />
        <mxCell id="NBxIQFS8E2B52CUT7OmF-1" value="" style="fillColor=#F6F6F6;strokeColor=none;shadow=0;gradientColor=none;fontSize=14;align=left;spacing=10;fontColor=#717171;9E9E9E;verticalAlign=top;spacingTop=-4;fontStyle=0;spacingLeft=40;html=1;" vertex="1" parent="1">
          <mxGeometry x="10" y="93" width="910" height="640" as="geometry" />
        </mxCell>
        <mxCell id="cl1eshBOhvSjgWWjhO74-1" value="" style="strokeColor=#dddddd;shadow=1;strokeWidth=1;rounded=1;absoluteArcSize=1;arcSize=2;" vertex="1" parent="1">
          <mxGeometry x="250" y="180" width="650" height="370" as="geometry" />
        </mxCell>
        <mxCell id="cl1eshBOhvSjgWWjhO74-2" value="Compute&#xa;Engine" style="editableCssRules=.*;html=1;fontColor=#999999;shape=image;verticalLabelPosition=middle;verticalAlign=middle;labelPosition=right;align=left;spacingLeft=20;part=1;points=[];imageAspect=0;image=data:image/svg+xml,PHN2ZyB4bWxucz0iaHR0cDovL3d3dy53My5vcmcvMjAwMC9zdmciIHhtbG5zOnY9Imh0dHBzOi8vdmVjdGEuaW8vbmFubyIgd2lkdGg9IjIwIiBoZWlnaHQ9IjIwIiB2aWV3Qm94PSIwIDAgMjAgMjAiPiYjeGE7CTxzdHlsZSB0eXBlPSJ0ZXh0L2NzcyI+JiN4YTsJLnN0MHtmaWxsOiM0Mjg1ZjQ7fSYjeGE7CS5zdDF7ZmlsbDojNjY5ZGY2O30mI3hhOwkuc3Qye2ZpbGw6I2FlY2JmYTt9JiN4YTsJPC9zdHlsZT4mI3hhOwk8cGF0aCBjbGFzcz0ic3QyIiBkPSJNNyA3aDZ2Nkg3eiIvPiYjeGE7CTxwYXRoIGNsYXNzPSJzdDEiIGQ9Ik05IDBoMnY0SDl6TTUgMGgydjRINXptOCAwaDJ2NGgtMnoiLz4mI3hhOwk8cGF0aCBjbGFzcz0ic3QwIiBkPSJNOSAxNmgydjRIOXptLTQgMGgydjRINXptOCAwaDJ2NGgtMnptMy01VjloNHYyem0wIDR2LTJoNHYyem0wLThWNWg0djJ6Ii8+JiN4YTsJPHBhdGggY2xhc3M9InN0MSIgZD0iTTAgMTFWOWg0djJ6bTAgNHYtMmg0djJ6bTAtOFY1aDR2MnoiLz4mI3hhOwk8cGF0aCBjbGFzcz0ic3QyIiBkPSJNMyAzdjE0aDE0VjN6bTEyIDEySDVWNWgxMHoiLz4mI3hhOwk8cGF0aCBjbGFzcz0ic3QxIiBkPSJNMTAgMTBsLTMgM2g2eiIvPiYjeGE7CTxwYXRoIGNsYXNzPSJzdDAiIGQ9Ik0xMyA3bC0zIDMgMyAzeiIvPiYjeGE7PC9zdmc+;" vertex="1" parent="cl1eshBOhvSjgWWjhO74-1">
          <mxGeometry width="30" height="30" relative="1" as="geometry">
            <mxPoint x="15" y="15" as="offset" />
          </mxGeometry>
        </mxCell>
        <mxCell id="cl1eshBOhvSjgWWjhO74-4" value="Visulate for Oracle VM" style="text;html=1;resizable=0;autosize=1;align=center;verticalAlign=middle;points=[];fillColor=none;strokeColor=none;rounded=0;" vertex="1" parent="cl1eshBOhvSjgWWjhO74-1">
          <mxGeometry x="499.99636363636364" y="10.003634894991933" width="140" height="30" as="geometry" />
        </mxCell>
        <mxCell id="EVOTIwntWdhU6_6rPtG5-8" value="Port Mapping" style="sketch=0;points=[[0,0,0],[0.25,0,0],[0.5,0,0],[0.75,0,0],[1,0,0],[1,0.25,0],[1,0.5,0],[1,0.75,0],[1,1,0],[0.75,1,0],[0.5,1,0],[0.25,1,0],[0,1,0],[0,0.75,0],[0,0.5,0],[0,0.25,0]];rounded=1;absoluteArcSize=1;arcSize=2;html=1;strokeColor=default;gradientColor=none;shadow=0;dashed=0;fontSize=12;fontColor=#9E9E9E;align=left;verticalAlign=top;spacing=10;spacingTop=-4;whiteSpace=wrap;fillColor=#FFF8E1;" vertex="1" parent="cl1eshBOhvSjgWWjhO74-1">
          <mxGeometry x="20" y="170" width="70" height="190" as="geometry" />
        </mxCell>
        <mxCell id="cl1eshBOhvSjgWWjhO74-5" value="" style="shape=image;verticalLabelPosition=bottom;labelBackgroundColor=default;verticalAlign=top;aspect=fixed;imageAspect=0;image=data:image/vnd.microsoft.icon,AAABAAMAEBAAAAEAIABoBAAANgAAACAgAAABACAAKBEAAJ4EAAAwMAAAAQAgAGgmAADGFQAAKAAAABAAAAAgAAAAAQAgAAAAAAAAAAAAAAAAAAAAAAAAAAAAAAAAAPGNOtbxjTvy8Y078vGNO/LxjTvy8Y078vGNO/LxjTvy8ok7J/+qAAP/jjkJ/445Cf9VAAMAAAAAAAAAAAAAAADxjTrg8Y07//GNO//xjTv/8Y07//GNO//xjTv/8Y07//CNOVXwjTrk8Y068fCMO/LxjTvi8Yw7uvCLOnfyjDMU8Y064PKbVP/0rHH/86hp//a9jf/0rnT/9baC//KUSP/xjTpc8Y07//GNO//xjTv/8Y07//GNO//xjTv/8Y07zPGNOuDymE//9Kpt//OdV//znln/9KZm//OgXP/xjz//7o07SvGMO5TxjTqN8Y46kPCLOpbxjDux8Y075/GNO+rxjTrg8Y07//GNO//xjTv/8Y07//GNO//xjTv/8Y07//GOOljxjTvz8Y06/fKNOv3yjTv28Yw61/GMO6Tzjjt+8I063/GNOv3xjTr98Y06/fGNO/7xjTv/8Y07//GNO//xjTpc8Y07//GNO//xjTv/8Y07//GNO//xjTv/8o072faSNxznhzAg54cwIOeHMCDwjT1D8Y078vGNO//xjTv/8Y45SPGNO5PxjTqS8Y05k/GMOpXxjTqf8Y071fGNO+n/gAACAAAAAAAAAAAAAAAAAAAAAPGOOUjuizp77os6e/GPOkvyjTr98Y06/vGOO/7xjTr98Y076vGMOrTxjDuB8I05QwAAAAAAAAAAAAAAAAAAAAAAAAAA8Yw6qPGMOsPwjTvd8Y07//GNO//xjTv/8Y07//GNO//xjTv/8I074vOMOYHxjDp88oxAFPCOPCLUgCoGAAAAAPGNOtbxjDu78Y07j/GNO4/wjDqZ8o07mPGMOpXwjDqV8Yw6uPCNOuTyjEAU8Y061vKNO/bwjDrj74w5bwAAAADyjDtk8Yw7w/KNOvnxjTv/8Y07//GNO//xjTv/8o07+/GNO87vjjpzAAAAAPOGPRXxjTqj8Y47/vGNOu30kDcX8Y071PGNO//xjTv/8Y07//GNOv7xjTr+8Y07//GNO//xjTv/8o075QAAAAAAAAAA7og7HvGMOYHwizxE/5IkB/GMO87wjTus8Y06lvGNOqPyjDuq8I06rPGMOqfyjDug8Iw7qfGNOtYAAAAAAAAAAAAAAAAAAAAAAAAAAAAAAADyjDl48Yw76fGOO/7xjTv/8Y07//GNO//xjTv/8Y07//GNOvDxjTqNAAAAAAAAAAAAAAAAAAAAAAAAAAAAAAAA8ow7m/GNO//xjTv/8Y07//GNO//xjTv/8Y07//GNO//xjTv+8I07rgAAAAAAAAAAAAAAAAAAAAAAAAAAAAAAAKpVAAPviTtB8Iw7ivKOOqvyjDq98Y06wvKNOrDvjDqD8o86OapVAAMAAAAAAAAAAAAAAAAAAAAAAAAAAAAAAAAAAAAAAAAAAAAAAAAAAAAAAAAAAAAAAAAAAAAAAAAAAAAAAAAAAAAAKAAAACAAAABAAAAAAQAgAAAAAAAAAAAAAAAAAAAAAAAAAAAAAAAAAPKNO7HyjTvm8o075vKNO+byjTvm8o075vKNO+byjTvm8o075vKNO+byjTvm8o075vKNO+byjTvm8o075vKNO+byjTlMAAAAAAAAAAAAAAAAAAAAAAAAAAAAAAAAAAAAAAAAAAAAAAAAAAAAAAAAAAAAAAAAAAAAAAAAAAAAAAAA8Y06wvGNO//xjTv/8Y07//GNO//xjTv/8Y07//GNO//xjTv/8Y07//GNO//xjTv/8Y07//GNO//xjTv/8Y07/++MOVAAAAAA/4AAAuiLLgvwhzwR8owzFPOLOhb/j0AQ/4AzCoCAAAIAAAAAAAAAAAAAAAAAAAAAAAAAAAAAAADxjTrC8Y07//GNO//xjTv/8Y07//GNO//xjTv/8Y07//GNO//xjTv/8Y07//GNO//xjTv/8Y07//GNO//xjTv/74w5UPGNO0ryjTq+8Y071PGNOuDxjTvn8Y076vGNOt/wjDrT8Y07ufKMOozxjTle8ok7J/+AQAQAAAAAAAAAAPGNOsLxjTv/8Y07//GNO//xjTv/8Y07//GNO//xjTv/8Y07//GNO//xjTv/8Y07//GNO//xjTv/8Y07//GNO//vjDlQ8I06afGNO//xjTv/8Y07//GNO//xjTv/8Y07//GNO//xjTv/8Y07//GNO/7xjTv08Y06vPKLOk//gAAC8Y06wvGNO//xjTv/859b//a7i//1tH7/9Kxx//OiX//2uYf/9ryM//e8i//1tX//9Ktv//W1gP/ylkr/8Y07/++MOVDwjTpp8Y07//GNO//xjTv/8Y07//GNO//xjTv/8Y07//GNO//xjTv/8Y07//GNO//xjTv/8Y06+fGNOWvxjTrC8Y07//GNO//1tYH/8Y8///Wye//1t4T/8ppS//a5hv/4xp3/8p1W//SrcP/3wJT/9riG//OiX//xjTv/74w5UPCNOmnxjTv/8Y07//GNO//xjTv/8Y07//GNO//xjTv/8Y07//GNO//xjTv/8Y07//GNO//xjTv/8Y07zvGNOsLxjTv/8Y07//W0fv/ylkz/9riF//Wye//0qGv/9rqJ//OmZ//2uYf/9reE//Sqbf/2toP/8pZL//GNO//vjDlQ8I06afGMOv3xjTvt8Y074vCNO+LwjTvi8Yw75fCMOvDxjDv78Y07/vGNO//xjTv/8Y07//GNO//xjTrW8Y06wvGNO//xjTv/8pRI//a0gP/zpWT/8Y07//GNO//xjTv/8Y07//GNO//ym1T/8ZJE//GNO//xjTv/8Y07/++MOVD2kDse8Yk5NvCKODLwjDcz7ow3PPCLOkLxjTc48Yw6NfGLODfyizhN8Is7efGOO7LxjTvt8Y07/vGNOtbxjTrC8Y07//GNO//xjTv/8Y07//GNO//xjTv/8Y07//GNO//xjTv/8Y07//GNO//xjTv/8Y07//GNO//xjTv/74w5UPGOOljxjTvd8Y078vGNO/zxjTv88o07/PGNO/zwjTv28Y075vKNO8TwjDqZ8o47Y++LPEDyjDt68Y06xfGNOsLxjTv/8Y07//GNO//xjTv/8Y07//GNO//xjTv/8Y07//GNO//xjTv/8Y07//GNO//xjTv/8Y07//GNO//vjDlQ8I06afGNO//xjTv/8Y07//GNO//xjTv/8Y07//GNO//xjTv/8Y07//GNO//xjTv+8Y077vGMO470jjkt8Y06wvGNO//xjTv/8Y07//GNO//xjTv/8Y07//GNO//xjTv/8Y07//GNO//xjTv/8Y07//GNO//xjTv/8Y07/++MOVDwjTpp8Y07//GNO//xjTv/8Y07//GNO//xjTv/8Y07//GNO//xjTv/8Y07//GNO//xjTv/8Y47/vONO5PwjTrA8Y07+/GNO/vxjTv78Y07+/GNO/vxjTv78Y07+/GNO/zxjjv+8Y07//GNO//xjTv/8Y07//GNO//xjTv/74w5UPCNOmnxjTv/8Y07//GNO//xjTv/8Y07//GNO//xjTv/8Y07//GNO//xjTv/8Y07//GNO//xjTv/8Y061vCMNzPvijU/74o1P++KNT/vijU/74o1P++KNT/vijU/8Iw7RfCMO7bxjTv/8Y07//GNO//xjTv/8Y07//GNO//vjDlQ8o06ZfKNOuTxjTrW8Y06yvGNOsLwjTq68Y06vPCMO9PyjTvk8Y07+PGNO//xjTv/8Y07//GNO//xjTrWAAAAAAAAAAAAAAAAAAAAAAAAAAAAAAAAAAAAAAAAAAAAAAAA8Y45EvCNOs3xjTv/8Y07//GNO//xjTv/8Y07/++MOVDtiTcc9I48RPKNO07xjjxa8I45Y/GNOWvxjTlr8447VvCOOkbtjTk67os4TfGNOoTyjjvR8Y07+fGNOtYAAAAAAAAAAAAAAAAAAAAAAAAAAAAAAAAAAAAAAAAAAAAAAAAAAAAA8Iw3M/GNO97xjTvm8Y075vGNO+bxjTvm8Y86S/CMO2jyjTv78Y06/fGNOv7xjTr+8Y07/vGOO/7xjTr98Y07+/GNO+rwjTvB8I46jPGNO0rxjDlZ8Yw7st+AIAgAAAAAAAAAAAAAAAAAAAAAAAAAAAAAAAAAAAAAAAAAAAAAAAAAAAAA7ZI3Dt+AMBDfgDAQ34AwEN+AMBD/mTMF8ow6dvGNO//xjTv/8Y07//GNO//xjTv/8Y07//GNO//xjTv/8Y07//GNO//xjTv/8Y07+vGMO8PtjTs48o07Tv+qAAMAAAAAAAAAAAAAAAAAAAAAAAAAAAAAAAAAAAAAAAAAAAAAAAD/AAAB8Io5ZvCKOYfwijmH8Io5h/CMOozxjTvp8Y07//GNO//xjTv/8Y07//GNO//xjTv/8Y07//GNO//xjTv/8Y07//GNO//xjTv/8Y07//GNOrPwizp38Is8RAAAAAAAAAAAAAAAAAAAAAAAAAAAAAAAAAAAAAAAAAAAAAAAAP8AAAHxjDu28Y07//GNO//xjTv/8Y07//GNO//xjTv/8Y07//GNO//xjTv/8Y07//GNO//xjTv/8Y07//GNO//xjTv/8Y07//GNO//xjTv/8Y061vOLOkLyjTvl8o05TP9VAAMAAAAAAAAAAAAAAAD/kkkHAAAAAAAAAAAAAAAA/wAAAfGMO7bxjTv/8Y07//GNO/7xjTvt8Y061vGNOrnyjDqe8Y07k/KMO4ryjDyJ8ow7ivKMOp7wjDq+8Y072fGNO+/xjTv+8Y07//GNO//xjTrW/4suC/GNOtTxjTv18o46q/COPETtkjcO//8AAfGNOn/qijUYAAAAAAAAAAD/AAAB8Yw7tvGNO+3xjTuf8ow5UPCMPDPtijlI8o47Y/GNO4LyjDqZ8Iw5rfKNOqzxjDqi8Y06jfGOO2zvjDlQ8oo4O/KMOVDxjDqS8Yw75/GNO9UAAAAA8os8UfGMO/fxjTv/8o07+/GNOuDxjDqn8Y075u+NO5MAAAAAAAAAAP8AAAHxjTxr8Yw6NfSMO1vxjTu18Yw67PGNO/zxjTv+8Y07//GNO//xjTv/8Y07//GNO//xjTv/8Y07//GNO/zxjTv08Y06xfCMOXjwijgy8Y06gAAAAAD//wAB8Ys7bPGOO/XxjTv/8Y07//GNO//xjTv/8I079PCOOzQAAAAAAAAAAPKMOSjxjTrJ8Y07/PGNO//xjTv/8Y07//GNO//xjTv/8Y07//GNO//xjTv/8Y07//GNO//xjTv/8Y07//GNO//xjTv/8Y07/vCNO93yjjs9AAAAAAAAAAD/gAAC74w7UvGNOt/xjjv+8Y07//GNO//xjTv/8Y06uf+AKgYAAAAA8I07nPGNO//xjTv/8Y07//GNO//xjTv/8Y07//GNO//xjTv/8Y07//GNO//xjTv/8Y07//GNO//xjTv/8Y07//GNO//xjTv/8Y07//GNOsIAAAAAAAAAAAAAAAAAAAAA7I45G/CLOpbxjTr98Y07//GNO//xjTr98444Vv8AAAHxjDu28Y07//GNO//xjTv/8Y07//GNO//xjTv/8Y06/vGNOv7yjTr98Y06/vGNOv7xjTr+8Y07//GNO//xjTv/8Y07//GNO//xjTv/8Y061gAAAAAAAAAAAAAAAAAAAAAAAAAA9Y07SvGNO/LxjTrb8Yw6p/CMO2j2kjcc/wAAAfGMO7bxjTv/8Y07//GNO/HyjjzJ8I06mvGMOX7yjDpz8Ys6bvOMOGjujTlr8Y05cPKMOXjvjTmC8ow7oPCMO9PxjTvu8Y07/vGNO//xjTrWAAAAAAAAAAAAAAAAAAAAAAAAAAD0jjkt9I45LeiLLgsAAAAAAAAAAAAAAAD/AAAB8Yw6tPGMO8/wizt18Y07SvGNOV7yjjqZ8Y07w/GNO9nyjTvl8Yw67PGMO+7yjTvn8Y073fGMO8byjDqe74w4cfGMO1vxjTpc8ow7svCMO9EAAAAAAAAAAAAAAAAAAAAAAAAAAAAAAAAAAAAAAAAAAAAAAAAAAAAAAAAAAP8AAAHwijpG8o05TPGMO7LxjTvz8Y07/fGNO//xjTv/8Y07//GNO//xjTv/8Y07//GNO//xjTv/8Y07//GNO//xjjv+8Y06+vGNOsrzjTln74s5UQAAAAAAAAAAAAAAAAAAAAAAAAAAAAAAAAAAAAAAAAAAAAAAAAAAAAAAAAAAAAAAAPGNOlzxjTv08Y07//GNO//xjTv/8Y07//GNO//xjTv/8Y07//GNO//xjTv/8Y07//GNO//xjTv/8Y07//GNO//xjTv/8Y07//GNO/zxjTqAAAAAAAAAAAAAAAAAAAAAAAAAAAAAAAAAAAAAAAAAAAAAAAAAAAAAAAAAAAAAAAAA8446kPGNO//xjTv/8Y07//GNO//xjTv/8Y07//GNO//xjTv/8Y07//GNO//xjTv/8Y07//GNO//xjTv/8Y07//GNO//xjTv/8Y07//CNOsEAAAAAAAAAAAAAAAAAAAAAAAAAAAAAAAAAAAAAAAAAAAAAAAAAAAAAAAAAAAAAAADshDkb8Yw7w/GNO/7xjTv/8Y07//GNO//xjTv/8Y07//GNO//xjTv/8Y07//GNO//xjTv/8Y07//GNO//xjTv/8Y07//KNO/vxjDvI9I86MAAAAAAAAAAAAAAAAAAAAAAAAAAAAAAAAAAAAAAAAAAAAAAAAAAAAAAAAAAAAAAAAAAAAADoiy4L8Iw6VPCMOq/yjDrj8Y07+/GNO//xjTv/8Y07//GNO//xjTv/8Y07//GNO//xjTv/8Y079PGNO+DxjDuk8486QuiLLgsAAAAAAAAAAAAAAAAAAAAAAAAAAAAAAAAAAAAAAAAAAAAAAAAAAAAAAAAAAAAAAAAAAAAAAAAAAAAAAAAAAAAAAAAAAeOAORLyizo58os6T/KOOmHyjjpz8Is6hPKNOYbxjTqE8Ys5cPCMOlTuizos6IsuCwAAAAAAAAAAAAAAAAAAAAAAAAAAAAAAAAAAAAAAAAAAAAAAAAAAAAAAAAAAAAAAAAAAAAAAAAAAAAAAAAAAAAAAAAAAAAAAAAAAAAAAAAAAAAAAAAAAAAAAAAAAAAAAAAAAAAAAAAAAAAAAAAAAAAAAAAAAAAAAAAAAAAAAAAAAAAAAAAAAAAAAAAAAAAAAAAAAAAAAAAAAAAAAAAAAAAAAAAAAAAAAAAAAAAAAAAAAAAAAAAAAAAAAAAAAAAAAAAAAAAAAAAAAAAAAAAAAAAAAAAAAAAAAAAAAAAAAAAAAAAAAAAAAAAAAAAAAAAAAAAAAAAAAAAAAAAAAAAAAAAAAAAAAAAAAAAAAAAAAAAAAKAAAADAAAABgAAAAAQAgAAAAAAAAAAAAAAAAAAAAAAAAAAAAAAAAAPKMO4fxjDvX8Yw71/GMO9fxjDvX8Yw71/GMO9fxjDvX8Yw71/GMO9fxjDvX8Yw71/GMO9fxjDvX8Yw71/GMO9fxjDvX8Yw71/GMO9fxjDvX8Yw71/GMO9fxjDvX8Yw71/KMOnb/qgADAAAAAAAAAAAAAAAAAAAAAAAAAAAAAAAAAAAAAAAAAAAAAAAAAAAAAAAAAAAAAAAAAAAAAAAAAAAAAAAAAAAAAAAAAAAAAAAAAAAAAAAAAAAAAAAAAAAAAPCMOpnxjTr+8Y06/vGNOv7xjTr+8Y06/vGNOv7xjTr+8Y06/vGNOv7xjTr+8Y06/vGNOv7xjTr+8Y06/vGNOv7xjTr+8Y06/vGNOv7xjTr+8Y06/vGNOv7xjTr+8Y06/vONOoD/qgADAAAAAAAAAAAAAAAAAAAAAAAAAAAAAAAAAAAAAAAAAAAAAAAAAAAAAAAAAAAAAAAAAAAAAAAAAAAAAAAAAAAAAAAAAAAAAAAAAAAAAAAAAAAAAAAAAAAAAPCMOpnxjTv/8Y07//GNO//xjTv/8Y07//GNO//xjTv/8Y07//GNO//xjTv/8Y07//GNO//xjTv/8Y07//GNO//xjTv/8Y07//GNO//xjTv/8Y07//GNO//xjTv/8Y07//ONOoD/qgADAAAAAP+AAALoiy4L85I9Fe2JNxz3jDof8IozI+uNNibwizYh9ZM7GvKGNhP/gDMK/wAAAQAAAAAAAAAAAAAAAAAAAAAAAAAAAAAAAAAAAAAAAAAAAAAAAPCMOpnxjTv/8Y07//GNO//xjTv/8Y07//GNO//xjTv/8Y07//GNO//xjTv/8Y07//GNO//xjTv/8Y07//GNO//xjTv/8Y07//GNO//xjTv/8Y07//GNO//xjTv/8Y07//ONOoD/jjkJ8Iw6VPKMOY7xjTuo8Y06vPCNOsvwjTrS8Y072fCMO97xjDvV8Y07x/CNO7nwjTqm8Is7hvKOPGHyjjs99484IP+HPBH/mTMF/wAAAQAAAAAAAAAAAAAAAPCMOpnxjTv/8Y07//GNO//xjTv/8Y07//GNO//xjTv/8Y07//GNO//xjTv/8Y07//GNO//xjTv/8Y07//GNO//xjTv/8Y07//GNO//xjTv/8Y07//GNO//xjTv/8Y07//ONOoDtkjcO8Y07n/KOO/zxjTv/8Y07//GNO//xjTv/8Y07//GNO//xjTv/8Y07//GNO//xjTv/8Yw7+/GNOvDyjTvk8Iw70/CNO6rxjDtx8Y49NuuJOw3/AAABAAAAAPCMOpnxjTv/8Y07//GNO//xjTv/8Y07//GNO//xjTv/8Y07//GNO//xjTv/8Y07//GNO//xjTv/8Y07//GNO//xjTv/8Y07//GNO//xjTv/8Y07//GNO//xjTv/8Y07//ONOoDtkjcO74w6ovGNO//xjTv/8Y07//GNO//xjTv/8Y07//GNO//xjTv/8Y07//GNO//xjTv/8Y07//GNO//xjTv/8Y07//KOO/zxjTv08o072/ONO5Luizos//8AAfCMOpnxjTv/8Y07//GNO//xjTz/855Y//fCl//3w5n/86Jf//OeWf/zpGP/9KZm//fEmf/3v5D/9K1z//fAkv/2toD/9bR+//OfWv/1tYH/97+S//KZT//xjTv/8Y07//ONOoDtkjcO74w6ovGNO//xjTv/8Y07//GNO//xjTv/8Y07//GNO//xjTv/8Y07//GNO//xjTv/8Y07//GNO//xjTv/8Y07//GNO//xjTv/8Y07//GNO/zwjTq87Yw9KvCMOpnxjTv/8Y07//GNO//xkUL/98KX//SlZf/zoV3/98KW//Soaf/0q3D/9bN8//a6iP/3xJr/97+R//Wwd//zoV3/9r+R//Wwd//2v5H/9bB4//OiX//xjTv/8Y07//ONOoDtkjcO74w6ovGNO//xjTv/8Y07//GNO//xjTv/8Y07//GNO//xjTv/8Y07//GNO//xjTv/8Y07//GNO//xjTv/8Y07//GNO//xjTv/8Y07//GNO//xjTv48Y06gPCMOpnxjTv/8Y07//GNO//ylkr/98Wc//GPPv/xkED/+Mac//Stcv/0rnP/8plQ//Wvdv/3wZT/98GV//OmZ//xkUL/9ruL//Wzfv/3wpb/9rmH//a3hP/xjTv/8Y07//ONOoDtkjcO74w6ovGNO//xjTv/8Y07//GNO//xjTv/8Y07//GNO//xjTv/8Y07//GNO//xjTv/8Y07//GNO//xjTv/8Y07//GNO//xjTv/8Y07//GNO//xjTv/8Y45tvCMOpnxjTv/8Y07//GNO//xlEj/+Mae//GUR//ylEf/+Mad//WscP/3vY7/9Khq//e7i//1t4X/9Kpv//a8jP/1tYD/98GW//Spa//1t4T/9riG//SlZP/xjTv/8Y07//ONOoDtkjcO74w6ovGNO//xjTv88Y07+PCNO/bxjjv18Y479fGOO/Xxjjv18Yw79/KNO/nxjTv88Y07/vGNO//xjTv/8Y07//GNO//xjTv/8Y07//GNO//xjTv/8I45u/CMOpnxjTv/8Y07//GNO//xjz7/9rWA//a7iv/2uIb/9riF//KWS//zoF3/8pZL//SjYv/znVf/8ZBA//OhXv/znVf/9rqJ//OeWf/znVb/9KJf//GPPv/xjTv/8Y07//ONOoDqlSoM8I47dfGMOqfwjTuY8Y08hPCMOXjwizp38I06d/KNOnfwjDl48Yw7fvCMOYrxjTyW8Yw7pPGMO7vxjTrW8Yw78PKNO/nxjTv98Y07//GNO//xjTv/8I45u/CMOpnxjTv/8Y07//GNO//xjTv/8ZFE//OgXf/zoV7/8pRH//GNO//xjTv/8Y07//GNO//xjTv/8Y07//GNO//xjTv/8phQ//GRQv/xjTv/8Y07//GNO//xjTv/8Y07//ONOoDUgCoG9ok3HPiOOSTzjDcq7405MfGNNzjvjTdB8Y07Su+MO1LxjzpL8ow7PPCMPDP0jTwv84k4KfKJOyfviDYv7407Qe+NOnLwjDu98o476PGNOv3xjTv/8I45u/CMOpnxjTv/8Y07//GNO//xjTv/8Y07//GNO//xjTv/8Y07//GNO//xjTv/8Y07//GNO//xjTv/8Y07//GNO//xjTv/8Y07//GNO//xjTv/8Y07//GNO//xjTv/8Y07//ONOoDqlUAM8o47dfCNO8HxjDvY8Y077/KNOvrxjDr78Yw7+/KMO/vxjDv78Yw6+/GNO/PxjTvm8Yw6zvGNO6jxjjuB8Yw6Xe2LOjnxkTcl7ow7SfONOpLxjTvh8Y06uPCMOpnxjTv/8Y07//GNO//xjTv/8Y07//GNO//xjTv/8Y07//GNO//xjTv/8Y07//GNO//xjTv/8Y07//GNO//xjTv/8Y07//GNO//xjTv/8Y07//GNO//xjTv/8Y07//ONOoDtkjcO74w6ovGNO//xjTv/8Y07//GNO//xjTv/8Y07//GNO//xjTv/8Y07//GNO//xjTv/8Y07//GNO//xjDv78Y077/GNO9/wjDu78Y07gvOLPEDwjTlV8Y06f/CMOpnxjTv/8Y07//GNO//xjTv/8Y07//GNO//xjTv/8Y07//GNO//xjTv/8Y07//GNO//xjTv/8Y07//GNO//xjTv/8Y07//GNO//xjTv/8Y07//GNO//xjTv/8Y07//ONOoDtkjcO74w6ovGNO//xjTv/8Y07//GNO//xjTv/8Y07//GNO//xjTv/8Y07//GNO//xjTv/8Y07//GNO//xjTv/8Y07//GNO//xjTv98Yw79/GNO9TwjTln9IU3F/CMOpnxjTv/8Y07//GNO//xjTv/8Y07//GNO//xjTv/8Y07//GNO//xjTv/8Y07//GNO//xjTv/8Y07//GNO//xjTv/8Y07//GNO//xjTv/8Y07//GNO//xjTv/8Y07//ONOoDtkjcO74w6ovGNO//xjTv/8Y07//GNO//xjTv/8Y07//GNO//xjTv/8Y07//GNO//xjTv/8Y07//GNO//xjTv/8Y07//GNO//xjTv/8Y07//GNO//xjTzi8Ys6S/CMOpnxjTv/8Y07//GNO//xjTv/8Y07//GNO//xjTv/8Y07//GNO//xjTv/8Y07//GNO//xjTv/8Y07//GNO//xjTv/8Y07//GNO//xjTv/8Y07//GNO//xjTv/8Y07//ONOoDtkjcO74w6ovGNO//xjTv/8Y07//GNO//xjTv/8Y07//GNO//xjTv/8Y07//GNO//xjTv/8Y07//GNO//xjTv/8Y07//GNO//xjTv/8Y07//GNO//xjTr98Y06o/CMO5fxjTr58Y06+fGNOvnxjTr58Y06+fGNOvnxjTr58Y06+fGNOvnxjTr58Y06+fGNOvnxjTz88Y07//GNO//xjTv/8Y07//GNO//xjTv/8Y07//GNO//xjTv/8Y07//ONOoDtkjcO74w6ovGNO//xjTv/8Y07//GNO//xjTv/8Y07//GNO//xjTv/8Y07//GNO//xjTv/8Y07//GNO//xjTv/8Y07//GNO//xjTv/8Y07//GNO//xjTv/8Iw5u/GMOUfwjDdm8Iw3ZvCMN2bwjDdm8Iw3ZvCMN2bwjDdm8Iw3ZvCMN2bwjDdm8Iw3ZvCNOmnwjDqZ8Y076vGNO//xjTv/8Y07//GNO//xjTv/8Y07//GNO//xjTv/8Y07//ONOoDtkjcO8Y07n/GNO/fwjTv08I078fGMO+7xjTvq8Y075vCOOuPwjTrg8o075vGNO+/xjTvz8Y079/KNO/vxjTv/8Y07//GNO//xjTv/8Y07//GNO//xjTv/8I45u4CAAAL/gAAC/4AAAv+AAAL/gAAC/4AAAv+AAAL/gAAC/4AAAv+AAAL/gAAC/4AAAv+AAALxjjkS8ow6c/GNO/DxjTv/8Y07//GNO//xjTv/8Y07//GNO//xjTv/8Y07//ONOoD/mTMK9I47X/GMOYHxjDlv8ow4X++MOFLuizhN8Yw7SfCKN0bzizpC8Yw7SfGMOVnvjDpt8Yw7gfKOOpnxjDuy8Y07x/KNOuTxjTv68Y07/vGNO//xjTv/8I45uwAAAAAAAAAAAAAAAAAAAAAAAAAAAAAAAAAAAAAAAAAAAAAAAAAAAAAAAAAAAAAAAAAAAAAAAAAA64k7De+MOpDxjDr58Y07//GNO//xjTv/8Y07//GNO//xjTv/8Y07//ONOoDUgCoG84k4KfKNO07yizlj9I06d/GNOo3wjTuY8Y47oPGNOqjyjTyv8Iw6pvKNOonxjDpt8o48Te6QPS7yiTsn7Ik4KfOMOj7xjjx88Y47yPGNO/Dxjjv+8I45uwAAAAAAAAAAAAAAAAAAAAAAAAAAAAAAAAAAAAAAAAAAAAAAAAAAAAAAAAAAAAAAAAAAAAAAAAAAAAAAAOiLNiHxjTq58Y479fGMO/fxjDv38Yw79/GMO/fxjDv38Yw79/GOO37tkjcO8Iw6nfGNOvnxjTr68Y07/PGMOv3xjTr98Y06/fGNOv7xjjv+8Y06/vGNO/zxjTv78Yw6+fKOO+bzjTu68o88jfKOO2Psizg38Yo3Je+MOF/yjTvH8Y46tAAAAAAAAAAAAAAAAAAAAAAAAAAAAAAAAAAAAAAAAAAAAAAAAAAAAAAAAAAAAAAAAAAAAAAAAAAAAAAAAP+qVQPvjDo+8o46c/KMOnbyjDp28ow6dvKMOnbyjDp28ow6dvCLOkL/lUAM74w6ovGNO//xjTv/8Y07//GNO//xjTv/8Y07//GNO//xjTv/8Y07//GNO//xjTv/8Y07//GNO//xjTv/8Y47/vCNO/PxjTvZ8o07rvONOmnyjTxM8o05Yv+LLgv/kkkHAAAAAAAAAAAAAAAAAAAAAAAAAAAAAAAAAAAAAAAAAAAAAAAAAAAAAAAAAAAAAAAAAAAAAAAAAAD/gAAC/5kzBf+ZMwX/mTMF/5kzBf+ZMwX/mTMF/5kzBf+qVQPzizoW8Y07tfGNO//xjTv/8Y07//GNO//xjTv/8Y07//GNO//xjTv/8Y07//GNO//xjTv/8Y07//GNO//xjTv/8Y07//GNO//xjTv/8o47/PKNO+7xjTuh8Yo+JfWNOTHzizosAAAAAQAAAAAAAAAAAAAAAAAAAAAAAAAAAAAAAAAAAAAAAAAAAAAAAAAAAAAAAAAAAAAAAAAAAAAAAAAA//8AAfGHOjXuiDhN7og4Te6IOE3uiDhN7og4Te+MOVDwjDqM8Y078vGNO//xjTv/8Y07//GNO//xjTv/8Y07//GNO//xjTv/8Y07//GNO//xjTv/8Y07//GNO//xjTv/8Y07//GNO//xjTv/8Y07//GNO//wjTv28Y07cPGMO0nwjTln/4AqBgAAAAAAAAAAAAAAAAAAAAAAAAAAAAAAAAAAAAAAAAAAAAAAAAAAAAAAAAAAAAAAAAAAAAAAAAAA/4AAAvGLOoDxjDvu8Yw77vGMO+7xjDvu8Yw77vGNO+/yjTv28o47/vGNO//xjTv/8Y07//GNO//xjTv/8Y07//GNO//xjTv/8Y07//GNO//xjTv/8Y07//GNO//xjTv/8Y07//GNO//xjTv/8Y07//GNO//xjjv+8Y06te6MNzzxjTqz64k7NP8AAAEAAAAAAAAAAAAAAAAAAAAAAAAAAAAAAAAAAAAAAAAAAAAAAAAAAAAAAAAAAAAAAAAAAAAA/4AAAvKNO4bxjTv/8Y07//GNO//xjTv/8Y07//GNO//xjTv/8Y07//GNO//xjTv/8Y07//GNO//xjTv/8Y07//GNO//xjTv/8Y07//GNO//xjTv/8Y07//GNO//xjTv/8Y07//GNO//xjTv/8Y07//GNO//xjTv/8I45u/aSQBzxjDvI8ow7w+6MOzz/kiQHAAAAAAAAAAAAAAAAAAAAAAAAAAD/AAAB/6pVAwAAAAAAAAAAAAAAAAAAAAAAAAAA/4AAAvKNO4bxjTv/8Y07//GNO//xjTv/8Y07//GNO/vwjTv18Iw78PKNOuTxjTrX8Yw6z/GNO8vxjjrG8Y07xPGNO8TxjTvE7406xfCMOs7xjDra8Yw75/GNO/HyjTv28Y07+/GNO//xjTv/8Y07//GNO//xjTv/8I45u/+LRgvxjTqW8Y07+vCMO9HxjTpu8ow5KNSAKgYAAAAAAAAAAAAAAAD/iTsN8I46RqpVAAMAAAAAAAAAAAAAAAAAAAAA/4AAAvKNO4bxjTv/8Y07//KNO/rxjTvh8Yw7u/GMO5fyjjpz8Y45WvGMOUfuijs984s8QPCKOkbxjTtK74s5UfKLOk/1jDhJ8Iw7RfGMOUfxjDlH8Ys6S/GKOV7wizp78o07mPGOO7vxjDra8o079/GOO/7xjTv/8I45u/+AAALyjThO8Y075/GNO/7xjTrw8Y07zPGMOoP1jjs05IY2E/+AQATujjkt8o07wfKOOz3/AAABAAAAAAAAAAAAAAAA/4AAAvKNO4bxjTv68Y081fGMO37vijk/8Y45JPKGPCbxjDtJ8Iw6dvGMO5fyjTux8o06wPKOOsnyjTzS8Y062/GMOtrxjTvV8Iw70fGMO8jxjTu58I07pfGMO4HwjDpU74g8L+2MNyrxizg38os6cvGNOsnxjjr18Y06ugAAAADvj0AQ8Iw6nvKNO/rxjTv/8Y07//KNO/vyjTvr8I06vvOOO37yjTqN8Yw78vCNOq/zhj0VAAAAAAAAAAAAAAAA/4AAAvGMO3HxjDuO74o6MPiKOiPxizpY8I06mvGNO9TxjTv08Y07+vGNOv3xjTv/8Y07//GNO//xjTv/8Y07//GNO//xjTv/8Y07//GNO//xjTv/8Y07/vGNO/vxjTv38Yw66fKNO7HxjDpt7Y05OvGRNyXwjTt58Y06nwAAAAAAAAAA8Y45JPKMO63xjTv48Y07//GNO//xjTv/8Y07//KOPPzwjTv28Y07/vGNO+7vjDtf/4BABAAAAAAAAAAA/wAAAfiOPCLuizos8Is7dfCNOsDxjDrs8Y07/vGNO//xjTv/8Y07//GNO//xjTv/8Y07//GNO//xjTv/8Y07//GNO//xjTv/8Y07//GNO//xjTv/8Y07//GNO//xjTv/8Y07//GNO//xjjv18ow72PKMO47zjjk/7ow3PAAAAAAAAAAA/wAAAfKJOyfyjjut8Yw7+fGNO//xjTv/8Y07//GNO//xjTv/8Y07//GNO/7yjTu+7Y0+HQAAAAAAAAAAAAAAAOuAOxrxjTqj8Y078fGNO/7xjTv/8Y07//GNO//xjTv/8Y07//GNO//xjTv/8Y07//GNO//xjTv/8Y07//GNO//xjTv/8Y07//GNO//xjTv/8Y07//GNO//xjTv/8Y07//GNO//xjTv/8Y07//KNO/fwjDu/+I08JgAAAAAAAAAAAAAAAP//AAHwijoj8Iw6nfGNO+3xjTr98Y07//GNO//xjTv/8Y07//GNO//xjDv38Yw7cf+qVQMAAAAAAAAAAPCLO1bxjTvx8Y07//GNO//xjTv/8Y07//GNO//xjTv/8Y07//GNO//xjTv/8Y07//GNO//xjTv/8Y07//GNO//xjTv/8Y07//GNO//xjTv/8Y07//GNO//xjTv/8Y07//GNO//xjTv/8Y07//GNO//xjTv68Iw6jAAAAAAAAAAAAAAAAAAAAAD/AAAB54Y9FfKOOmHwjDrB8Y079PGNO//xjTv/8Y07//GNO//xjjv+8Yw73vGMOjUAAAAA/4AAAvGLO4LxjTv+8Y07//GNO//xjTv/8Y07//GNO//xjTv/8Y07//GNO//xjTv/8Y07//GNO//xjTv/8Y07//GNO//xjTv/8Y07//GNO//xjTv/8Y07//GNO//xjTv/8Y07//GNO//xjTv/8Y07//GNO//xjTv/8I06uQAAAAAAAAAAAAAAAAAAAAAAAAAAAAAAAMyZMwXxij4l8I08iPGNO/nxjTv/8Y07//GNO//xjTv/8Y06/fGNO6H/iDMP/4AAAvKNO4bxjTv/8Y07//GNO//xjTv/8Y07//GNO//xjTv/8Y07//GNO//xjTv/8o06/fGNOv3xjTr98o07/PGMOv3xjTr98Y06/fGNOv7xjTv/8Y07//GNO//xjTv/8Y07//GNO//xjTv/8Y07//GNO//xjTv/8I45uwAAAAAAAAAAAAAAAAAAAAAAAAAAAAAAAAAAAAD/gAAC8o05YvKNOvbxjTv48Y477/CMO97xjTvC8Yw6lfSLOET/gCoG/4AAAvKNO4bxjTv/8Y07//GNO//xjTv+8o07+PGMO+7xjTvc8Y47y/CMOsHxjTqz8Y07ofCLPJbwjDqM74w4g/GNOoTxjDmO8Y47l/GNOaXxjDq48Y07w/GNO87xjTvi8I078vKNO/jxjTr98Y07//GNO//xjTv/8I45uwAAAAAAAAAAAAAAAAAAAAAAAAAAAAAAAAAAAADoiy4L8Y06hPKMOqvyjTuG7os6XO2NOTrzkj0V/4AqBv+AAAIAAAAA/4AAAvKNO4bxjTv/8Y07/fGNO+nwjTu+8I07i/GLOVrxjTtK8o05TPKOOVHxijxe8o06cvGLOoDyjTuG8Ys6jfGMOZDwjDuK8Yw6g/KNOXnyjTpl8I47VvONOlPxizla7ow4aPCNOojyjTus8Y071fKNO/jxjjv+8I45uwAAAAAAAAAAAAAAAAAAAAAAAAAAAAAAAAAAAAD/gEAE74c4IPKGNhP/jjkJ/4AAAgAAAAAAAAAAAAAAAAAAAAAAAAAA/4AAAvKMOoXxjTzn8I06mu6OOE3xjjk284w6VPKNO4bxjDq08o060vGNO+bxjTvv8Y078/KNO/byjTv38Y07+fKNO/nyjTv48Yw79/CNO/XxjTvw8Y076PGNO9XyjDq98ow7oPCNOnfzjzpC8o86OfGLOm7xjTvM8Iw6uAAAAAAAAAAAAAAAAAAAAAAAAAAAAAAAAAAAAAAAAAAAAAAAAAAAAAAAAAAAAAAAAAAAAAAAAAAAAAAAAAAAAAAAAAAA//8AAfGLPFrzjzpU8ZA6Ne+NOnLxjTvD8Y078vGNO/vxjTv/8Y07//GNO//xjTv/8Y07//GNO//xjTv/8Y07//GNO//xjTv/8Y07//GNO//xjTv/8Y07//GNO//xjTv/8Y06/vGMOvnxjTrf8Y07kvGMOUfwjTlD8448fAAAAAAAAAAAAAAAAAAAAAAAAAAAAAAAAAAAAAAAAAAAAAAAAAAAAAAAAAAAAAAAAAAAAAAAAAAAAAAAAAAAAAAAAAAAAAAAAPOLOhbyjTli8Yw6xvGMO/fxjTv/8Y07//GNO//xjTv/8Y07//GNO//xjTv/8Y07//GNO//xjTv/8Y07//GNO//xjTv/8Y07//GNO//xjTv/8Y07//GNO//xjTv/8Y07//GNO//xjTv/8Y07/PCNO+HyjTqI8oY2JgAAAAAAAAAAAAAAAAAAAAAAAAAAAAAAAAAAAAAAAAAAAAAAAAAAAAAAAAAAAAAAAAAAAAAAAAAAAAAAAAAAAAAAAAAAAAAAAPCLOETwjTrf8Y07/fGNO//xjTv/8Y07//GNO//xjTv/8Y07//GNO//xjTv/8Y07//GNO//xjTv/8Y07//GNO//xjTv/8Y07//GNO//xjTv/8Y07//GNO//xjTv/8Y07//GNO//xjTv/8Y07//GNO//xjTrw8o47dQAAAAAAAAAAAAAAAAAAAAAAAAAAAAAAAAAAAAAAAAAAAAAAAAAAAAAAAAAAAAAAAAAAAAAAAAAAAAAAAAAAAAAAAAAAAAAAAPKMO2TxjTv68Y07//GNO//xjTv/8Y07//GNO//xjTv/8Y07//GNO//xjTv/8Y07//GNO//xjTv/8Y07//GNO//xjTv/8Y07//GNO//xjTv/8Y07//GNO//xjTv/8Y07//GNO//xjTv/8Y07//GNO//xjTv+8Iw7qQAAAAAAAAAAAAAAAAAAAAAAAAAAAAAAAAAAAAAAAAAAAAAAAAAAAAAAAAAAAAAAAAAAAAAAAAAAAAAAAAAAAAAAAAAAAAAAAPOOOyvxjDrG8Y06/fGNO//xjTv/8Y07//GNO//xjTv/8Y07//GNO//xjTv/8Y07//GNO//xjTv/8Y07//GNO//xjTv/8Y07//GNO//xjTv/8Y07//GNO//xjTv/8Y07//GNO//xjTv/8Y07//GNO/3xjTvd8Y06XAAAAAAAAAAAAAAAAAAAAAAAAAAAAAAAAAAAAAAAAAAAAAAAAAAAAAAAAAAAAAAAAAAAAAAAAAAAAAAAAAAAAAAAAAAAAAAAAP+AQATxjDlH8Iw7v/GNO/zxjTv/8Y07//GNO//xjTv/8Y07//GNO//xjTv/8Y07//GNO//xjTv/8Y07//GNO//xjTv/8Y07//GNO//xjTv/8Y07//GNO//xjTv/8Y07//GNO//yjjv+8o079vGNO8LwiztW/5kzCgAAAAAAAAAAAAAAAAAAAAAAAAAAAAAAAAAAAAAAAAAAAAAAAAAAAAAAAAAAAAAAAAAAAAAAAAAAAAAAAAAAAAAAAAAAAAAAAAAAAAD/gAAC7Yk3HPGOOmrxjDu78Y074fGNO/PyjTv68Y07//GNO//xjTv/8Y07//GNO//xjTv/8Y07//GNO//xjTv/8Y07//GNO//xjTv/8Y07//KOO/zyjTv48I078/CNO97zjTuo8I06U/WJOxr/qlUDAAAAAAAAAAAAAAAAAAAAAAAAAAAAAAAAAAAAAAAAAAAAAAAAAAAAAAAAAAAAAAAAAAAAAAAAAAAAAAAAAAAAAAAAAAAAAAAAAAAAAAAAAAAAAAAAAAAAAMxmMwX1iTsa74s4QO6KOWvxjDmX8Y06vPGNO8fxjDvP8o071/GOOt/xjDvn8Y067fGNOu3xjTrt8Y076/GOO+HxjTrW8Y07x/CNO6ryjTuG8I47Y/KKPTv/j0AQ/4AAAgAAAAAAAAAAAAAAAAAAAAAAAAAAAAAAAAAAAAAAAAAAAAAAAAAAAAAAAAAAAAAAAAAAAAAAAAAAAAAAAAAAAAAAAAAAAAAAAAAAAAAAAAAAAAAAAAAAAAAAAAAAAAAAAAAAAAAAAAAAAAAAAL+AQATriTsN84s6FueHOCDziTgp8Iw8M/KMNzzwijpG8os4Te+NOE7vjThO8Y86S/OKOT/wijgy8Is2IfCHPBH/jjkJ/4AAAgAAAAAAAAAAAAAAAAAAAAAAAAAAAAAAAAAAAAAAAAAAAAAAAAAAAAAAAAAAAAAAAAAAAAAAAAAAAAAAAAAAAAAAAAAAAAAAAAAAAAAAAAAAAAAAAAAAAAAAAAAAAAAAAAAAAAAAAAAAAAAAAAAAAAAAAAAAAAAAAAAAAAAAAAAAAAAAAAAAAAAAAAAAAAAAAAAAAAAAAAAAAAAAAAAAAAAAAAAAAAAAAAAAAAAAAAAAAAAAAAAAAAAAAAAAAAAAAAAAAAAAAAAAAAAAAAAAAAAAAAAAAAAAAAAAAAAAAAAAAAAAAAAAAAAAAAAAAAAAAAAAAAAAAAAAAAAAAAAAAAAAAAAAAAAAAAAAAAAAAAAAAAAAAAAAAAAAAAAAAAAAAAAAAAAAAAAAAAAAAAAAAAAAAAAAAAAAAAAAAAAAAAAAAAAAAAAAAAAAAAAAAAAAAAAAAAAAAAAAAAAAAAAAAAAAAAAAAAAAAAAAAAAAAAAAAAAAAAAAAAAAAAAAAAAAAAAAAAAAAAAAAAAAAAAAAAAAAAAAAAAAAAAAAAAAAAAAAAAAAAAAAAAAAAAAAAAAAAAAAAAAAAAAAAAAAAAAAAAAAAAAAAAAAAAAAAAAAAAAAAAAAAAAAAAAAAAAAAAAAAAAAAAAAAAAAAAAAAAAAAAAAAAAAAAAAAAAAAAAAAAAAAAAAAAAAAAAAAAAAAAAAAAAAAAAAAAAAAAAAAAAAAAAAAAAAAAAAAAAAAAAAAAAAAAAAAAAAAAAAAAAAAAAAAAAAAAAAAAAAAAAAAAAAAAAAAAAAAAAAA==;" vertex="1" parent="cl1eshBOhvSjgWWjhO74-1">
          <mxGeometry x="59.99818181818182" y="330.00093699515355" width="25.900000000000002" height="25.900000000000002" as="geometry" />
        </mxCell>
        <mxCell id="EVOTIwntWdhU6_6rPtG5-10" value="" style="endArrow=classic;startArrow=classic;html=1;rounded=0;exitX=0.169;exitY=0.514;exitDx=0;exitDy=0;exitPerimeter=0;" edge="1" parent="cl1eshBOhvSjgWWjhO74-1" source="cl1eshBOhvSjgWWjhO74-1">
          <mxGeometry width="50" height="50" relative="1" as="geometry">
            <mxPoint x="160" y="240" as="sourcePoint" />
            <mxPoint x="210" y="190" as="targetPoint" />
          </mxGeometry>
        </mxCell>
        <mxCell id="NBxIQFS8E2B52CUT7OmF-5" value="" style="whiteSpace=wrap;html=1;" vertex="1" parent="1">
          <mxGeometry x="470" y="348" width="100" height="52" as="geometry" />
        </mxCell>
        <mxCell id="NBxIQFS8E2B52CUT7OmF-6" value="Nginx Container&lt;br&gt;Reverse Proxy&lt;br&gt;port: 80" style="text;html=1;resizable=0;autosize=1;align=center;verticalAlign=middle;points=[];fillColor=none;strokeColor=none;rounded=0;" vertex="1" parent="1">
          <mxGeometry x="465" y="344" width="110" height="60" as="geometry" />
        </mxCell>
        <mxCell id="NBxIQFS8E2B52CUT7OmF-9" value="UI Container&lt;div&gt;&lt;br/&gt;&lt;/div&gt;" style="whiteSpace=wrap;html=1;" vertex="1" parent="1">
          <mxGeometry x="360" y="461" width="120" height="60" as="geometry" />
        </mxCell>
        <mxCell id="NBxIQFS8E2B52CUT7OmF-10" style="edgeStyle=orthogonalEdgeStyle;rounded=0;orthogonalLoop=1;jettySize=auto;html=1;exitX=0.5;exitY=1;exitDx=0;exitDy=0;" edge="1" parent="1">
          <mxGeometry relative="1" as="geometry">
            <mxPoint x="542" y="521" as="sourcePoint" />
            <mxPoint x="542" y="521" as="targetPoint" />
          </mxGeometry>
        </mxCell>
        <mxCell id="NBxIQFS8E2B52CUT7OmF-11" value="API Server&amp;nbsp;&lt;div&gt;Container&lt;div&gt;&lt;br&gt;&lt;/div&gt;&lt;/div&gt;" style="whiteSpace=wrap;html=1;" vertex="1" parent="1">
          <mxGeometry x="530" y="461" width="120" height="60" as="geometry" />
        </mxCell>
        <mxCell id="NBxIQFS8E2B52CUT7OmF-12" value="" style="endArrow=classic;html=1;entryX=0.5;entryY=0;entryDx=0;entryDy=0;" edge="1" parent="1">
          <mxGeometry width="50" height="50" relative="1" as="geometry">
            <mxPoint x="570" y="383" as="sourcePoint" />
            <mxPoint x="590" y="456" as="targetPoint" />
            <Array as="points">
              <mxPoint x="590" y="390" />
            </Array>
          </mxGeometry>
        </mxCell>
        <mxCell id="NBxIQFS8E2B52CUT7OmF-15" value="" style="endArrow=classic;startArrow=classic;html=1;entryX=0.5;entryY=0;entryDx=0;entryDy=0;exitX=0.5;exitY=1;exitDx=0;exitDy=0;" edge="1" parent="1" target="NBxIQFS8E2B52CUT7OmF-34">
          <mxGeometry width="50" height="50" relative="1" as="geometry">
            <mxPoint x="119" y="34" as="sourcePoint" />
            <mxPoint x="210" y="374" as="targetPoint" />
          </mxGeometry>
        </mxCell>
        <mxCell id="NBxIQFS8E2B52CUT7OmF-18" value="SQL Query&amp;nbsp;&lt;div&gt;Container&lt;br&gt;&lt;br&gt;&lt;/div&gt;" style="whiteSpace=wrap;html=1;" vertex="1" parent="1">
          <mxGeometry x="710" y="461" width="120" height="60" as="geometry" />
        </mxCell>
        <mxCell id="NBxIQFS8E2B52CUT7OmF-19" value="" style="endArrow=classic;html=1;entryX=0.5;entryY=0;entryDx=0;entryDy=0;exitX=0.39;exitY=0.933;exitDx=0;exitDy=0;exitPerimeter=0;" edge="1" parent="1" source="NBxIQFS8E2B52CUT7OmF-6">
          <mxGeometry width="50" height="50" relative="1" as="geometry">
            <mxPoint x="120" y="503" as="sourcePoint" />
            <mxPoint x="420" y="456" as="targetPoint" />
            <Array as="points">
              <mxPoint x="510" y="433" />
              <mxPoint x="420" y="433" />
            </Array>
          </mxGeometry>
        </mxCell>
        <mxCell id="NBxIQFS8E2B52CUT7OmF-29" value="" style="endArrow=classic;html=1;exitX=1.022;exitY=0.34;exitDx=0;exitDy=0;exitPerimeter=0;entryX=0.5;entryY=0;entryDx=0;entryDy=0;" edge="1" parent="1" source="NBxIQFS8E2B52CUT7OmF-6">
          <mxGeometry width="50" height="50" relative="1" as="geometry">
            <mxPoint x="740" y="413" as="sourcePoint" />
            <mxPoint x="770" y="456" as="targetPoint" />
            <Array as="points">
              <mxPoint x="770" y="370" />
            </Array>
          </mxGeometry>
        </mxCell>
        <mxCell id="NBxIQFS8E2B52CUT7OmF-34" value="" style="shape=mxgraph.gcp2.doubleRect;strokeColor=#dddddd;shadow=1;strokeWidth=1;rounded=1;absoluteArcSize=1;arcSize=2;" vertex="1" parent="1">
          <mxGeometry x="24" y="290.5" width="198" height="68" as="geometry" />
        </mxCell>
        <mxCell id="NBxIQFS8E2B52CUT7OmF-35" value="Cloud Load Balancing" style="editableCssRules=.*;html=1;fontColor=#999999;shape=image;verticalLabelPosition=middle;verticalAlign=middle;labelPosition=right;align=left;spacingLeft=20;part=1;points=[];imageAspect=0;image=data:image/svg+xml,PHN2ZyB4bWxucz0iaHR0cDovL3d3dy53My5vcmcvMjAwMC9zdmciIHhtbG5zOnY9Imh0dHBzOi8vdmVjdGEuaW8vbmFubyIgd2lkdGg9IjIwIiBoZWlnaHQ9IjIwIiB2aWV3Qm94PSIwIDAgMjAgMjAiPiYjeGE7CTxzdHlsZSB0eXBlPSJ0ZXh0L2NzcyI+JiN4YTsJLnN0MHtmaWxsOiM0Mjg1ZjQ7fSYjeGE7CS5zdDF7ZmlsbDojNjY5ZGY2O30mI3hhOwkuc3Qye2ZpbGw6I2FlY2JmYTt9JiN4YTsJPC9zdHlsZT4mI3hhOwk8cGF0aCBjbGFzcz0ic3QxIiBkPSJNMTYgMTBoMnY0aC0yem0tNyAwaDJ2NEg5em0tNyAwaDJ2NEgyeiIvPiYjeGE7CTxwYXRoIGNsYXNzPSJzdDAiIGQ9Ik05IDVoMnY0SDl6Ii8+JiN4YTsJPHBhdGggY2xhc3M9InN0MSIgZD0iTTIgOWgxNnYySDJ6Ii8+JiN4YTsJPHBhdGggY2xhc3M9InN0MiIgZD0iTTQgMGgxMnY1SDR6Ii8+JiN4YTsJPHBhdGggY2xhc3M9InN0MSIgZD0iTTEwIDBoNnY1aC02eiIvPiYjeGE7CTxwYXRoIGNsYXNzPSJzdDIiIGQ9Ik0xNCAxNGg2djZoLTZ6TTAgMTRoNnY2SDB6Ii8+JiN4YTsJPHBhdGggY2xhc3M9InN0MSIgZD0iTTMgMTRoM3Y2SDN6Ii8+JiN4YTsJPHBhdGggY2xhc3M9InN0MiIgZD0iTTcgMTRoNnY2SDd6Ii8+JiN4YTsJPHBhdGggY2xhc3M9InN0MSIgZD0iTTEwIDE0aDN2NmgtM3ptNyAwaDN2NmgtM3oiLz4mI3hhOzwvc3ZnPg==;" vertex="1" parent="NBxIQFS8E2B52CUT7OmF-34">
          <mxGeometry width="30" height="30" relative="1" as="geometry">
            <mxPoint x="15" y="15" as="offset" />
          </mxGeometry>
        </mxCell>
        <mxCell id="NBxIQFS8E2B52CUT7OmF-36" value="Google Cloud" style="fillColor=#4DA1F5;strokeColor=none;shadow=1;gradientColor=none;fontSize=14;align=left;spacingLeft=50;fontColor=#ffffff;whiteSpace=wrap;html=1;" vertex="1" parent="1">
          <mxGeometry x="10" y="84" width="910" height="40" as="geometry" />
        </mxCell>
        <mxCell id="NBxIQFS8E2B52CUT7OmF-37" value="" style="strokeColor=#dddddd;shadow=1;strokeWidth=1;rounded=1;absoluteArcSize=1;arcSize=2;" vertex="1" parent="1">
          <mxGeometry x="280" y="620" width="386" height="100" as="geometry" />
        </mxCell>
        <mxCell id="NBxIQFS8E2B52CUT7OmF-38" value="Cloud&#xa;Interconnect" style="editableCssRules=.*;html=1;fontColor=#999999;shape=image;verticalLabelPosition=middle;verticalAlign=middle;labelPosition=right;align=left;spacingLeft=20;part=1;points=[];imageAspect=0;image=data:image/svg+xml,PHN2ZyB4bWxucz0iaHR0cDovL3d3dy53My5vcmcvMjAwMC9zdmciIHhtbG5zOnY9Imh0dHBzOi8vdmVjdGEuaW8vbmFubyIgd2lkdGg9IjIwIiBoZWlnaHQ9IjE4IiBmaWxsLXJ1bGU9ImV2ZW5vZGQiIHZpZXdCb3g9IjAgMCAyMCAxOCI+JiN4YTsJPHN0eWxlIHR5cGU9InRleHQvY3NzIj4mI3hhOwkuc3Qwe2ZpbGw6IzQyODVmNDt9JiN4YTsJLnN0MXtmaWxsOiM2NjlkZjY7fSYjeGE7CS5zdDJ7ZmlsbDojYWVjYmZhO30mI3hhOwk8L3N0eWxlPiYjeGE7CTxwYXRoIGNsYXNzPSJzdDAiIGQ9Ik00IDhIMHYyaDR6Ii8+JiN4YTsJPHBhdGggY2xhc3M9InN0MiIgZD0iTTMgNGgxMHYxMEgzeiIvPiYjeGE7CTxwYXRoIGNsYXNzPSJzdDAiIGQ9Ik0yMCA4aC00LjY3djJIMjB6Ii8+JiN4YTsJPHBhdGggY2xhc3M9InN0MSIgZD0iTTE1IDJ2MTRINnYyaDExdi0yVjIgMEg2djJ6TTggNGg1djEwSDh6Ii8+JiN4YTs8L3N2Zz4=;" vertex="1" parent="NBxIQFS8E2B52CUT7OmF-37">
          <mxGeometry width="30" height="27" relative="1" as="geometry">
            <mxPoint x="15" y="16" as="offset" />
          </mxGeometry>
        </mxCell>
        <mxCell id="NBxIQFS8E2B52CUT7OmF-40" value="" style="strokeColor=#dddddd;shadow=1;strokeWidth=1;rounded=1;absoluteArcSize=1;arcSize=2;" vertex="1" parent="1">
          <mxGeometry x="690" y="620" width="220" height="100" as="geometry" />
        </mxCell>
        <mxCell id="NBxIQFS8E2B52CUT7OmF-41" value="Compute&#xa;Engine" style="editableCssRules=.*;html=1;fontColor=#999999;shape=image;verticalLabelPosition=middle;verticalAlign=middle;labelPosition=right;align=left;spacingLeft=20;part=1;points=[];imageAspect=0;image=data:image/svg+xml,PHN2ZyB4bWxucz0iaHR0cDovL3d3dy53My5vcmcvMjAwMC9zdmciIHhtbG5zOnY9Imh0dHBzOi8vdmVjdGEuaW8vbmFubyIgd2lkdGg9IjIwIiBoZWlnaHQ9IjIwIiB2aWV3Qm94PSIwIDAgMjAgMjAiPiYjeGE7CTxzdHlsZSB0eXBlPSJ0ZXh0L2NzcyI+JiN4YTsJLnN0MHtmaWxsOiM0Mjg1ZjQ7fSYjeGE7CS5zdDF7ZmlsbDojNjY5ZGY2O30mI3hhOwkuc3Qye2ZpbGw6I2FlY2JmYTt9JiN4YTsJPC9zdHlsZT4mI3hhOwk8cGF0aCBjbGFzcz0ic3QyIiBkPSJNNyA3aDZ2Nkg3eiIvPiYjeGE7CTxwYXRoIGNsYXNzPSJzdDEiIGQ9Ik05IDBoMnY0SDl6TTUgMGgydjRINXptOCAwaDJ2NGgtMnoiLz4mI3hhOwk8cGF0aCBjbGFzcz0ic3QwIiBkPSJNOSAxNmgydjRIOXptLTQgMGgydjRINXptOCAwaDJ2NGgtMnptMy01VjloNHYyem0wIDR2LTJoNHYyem0wLThWNWg0djJ6Ii8+JiN4YTsJPHBhdGggY2xhc3M9InN0MSIgZD0iTTAgMTFWOWg0djJ6bTAgNHYtMmg0djJ6bTAtOFY1aDR2MnoiLz4mI3hhOwk8cGF0aCBjbGFzcz0ic3QyIiBkPSJNMyAzdjE0aDE0VjN6bTEyIDEySDVWNWgxMHoiLz4mI3hhOwk8cGF0aCBjbGFzcz0ic3QxIiBkPSJNMTAgMTBsLTMgM2g2eiIvPiYjeGE7CTxwYXRoIGNsYXNzPSJzdDAiIGQ9Ik0xMyA3bC0zIDMgMyAzeiIvPiYjeGE7PC9zdmc+;" vertex="1" parent="NBxIQFS8E2B52CUT7OmF-40">
          <mxGeometry width="30" height="30" relative="1" as="geometry">
            <mxPoint x="15" y="15" as="offset" />
          </mxGeometry>
        </mxCell>
        <mxCell id="NBxIQFS8E2B52CUT7OmF-42" value="" style="dashed=0;outlineConnect=0;html=1;align=center;labelPosition=center;verticalLabelPosition=bottom;verticalAlign=top;shape=mxgraph.weblogos.oracle;fillColor=#FF0000;strokeColor=none" vertex="1" parent="NBxIQFS8E2B52CUT7OmF-40">
          <mxGeometry x="126" y="70" width="90" height="23" as="geometry" />
        </mxCell>
        <mxCell id="NBxIQFS8E2B52CUT7OmF-43" value="" style="strokeColor=#dddddd;shadow=1;strokeWidth=1;rounded=1;absoluteArcSize=1;arcSize=2;" vertex="1" parent="1">
          <mxGeometry x="20" y="620" width="236" height="100" as="geometry" />
        </mxCell>
        <mxCell id="NBxIQFS8E2B52CUT7OmF-44" value="GCVE" style="editableCssRules=.*;html=1;fontColor=#999999;shape=image;verticalLabelPosition=middle;verticalAlign=middle;labelPosition=right;align=left;spacingLeft=20;part=1;points=[];imageAspect=0;image=data:image/svg+xml,PHN2ZyB4bWxucz0iaHR0cDovL3d3dy53My5vcmcvMjAwMC9zdmciIHhtbG5zOnY9Imh0dHBzOi8vdmVjdGEuaW8vbmFubyIgd2lkdGg9IjIwIiBoZWlnaHQ9IjIwIiB2aWV3Qm94PSIwIDAgMjAgMjAiPiYjeGE7CTxzdHlsZSB0eXBlPSJ0ZXh0L2NzcyI+JiN4YTsJLnN0MHtmaWxsOiM0Mjg1ZjQ7fSYjeGE7CS5zdDF7ZmlsbDojNjY5ZGY2O30mI3hhOwkuc3Qye2ZpbGw6I2FlY2JmYTt9JiN4YTsJPC9zdHlsZT4mI3hhOwk8cGF0aCBjbGFzcz0ic3QyIiBkPSJNNyA3aDZ2Nkg3eiIvPiYjeGE7CTxwYXRoIGNsYXNzPSJzdDEiIGQ9Ik05IDBoMnY0SDl6TTUgMGgydjRINXptOCAwaDJ2NGgtMnoiLz4mI3hhOwk8cGF0aCBjbGFzcz0ic3QwIiBkPSJNOSAxNmgydjRIOXptLTQgMGgydjRINXptOCAwaDJ2NGgtMnptMy01VjloNHYyem0wIDR2LTJoNHYyem0wLThWNWg0djJ6Ii8+JiN4YTsJPHBhdGggY2xhc3M9InN0MSIgZD0iTTAgMTFWOWg0djJ6bTAgNHYtMmg0djJ6bTAtOFY1aDR2MnoiLz4mI3hhOwk8cGF0aCBjbGFzcz0ic3QyIiBkPSJNMyAzdjE0aDE0VjN6bTEyIDEySDVWNWgxMHoiLz4mI3hhOwk8cGF0aCBjbGFzcz0ic3QxIiBkPSJNMTAgMTBsLTMgM2g2eiIvPiYjeGE7CTxwYXRoIGNsYXNzPSJzdDAiIGQ9Ik0xMyA3bC0zIDMgMyAzeiIvPiYjeGE7PC9zdmc+;" vertex="1" parent="NBxIQFS8E2B52CUT7OmF-43">
          <mxGeometry width="30" height="30" relative="1" as="geometry">
            <mxPoint x="15" y="15" as="offset" />
          </mxGeometry>
        </mxCell>
        <mxCell id="NBxIQFS8E2B52CUT7OmF-45" value="" style="pointerEvents=1;shadow=0;dashed=0;html=1;strokeColor=none;fillColor=#4495D1;labelPosition=center;verticalLabelPosition=bottom;verticalAlign=top;align=center;outlineConnect=0;shape=mxgraph.veeam.vmware_host;" vertex="1" parent="NBxIQFS8E2B52CUT7OmF-43">
          <mxGeometry x="140" y="11" width="84" height="55" as="geometry" />
        </mxCell>
        <mxCell id="NBxIQFS8E2B52CUT7OmF-46" value="" style="dashed=0;outlineConnect=0;html=1;align=center;labelPosition=center;verticalLabelPosition=bottom;verticalAlign=top;shape=mxgraph.weblogos.oracle;fillColor=#FF0000;strokeColor=none" vertex="1" parent="NBxIQFS8E2B52CUT7OmF-43">
          <mxGeometry x="141" y="73" width="90" height="23" as="geometry" />
        </mxCell>
        <mxCell id="NBxIQFS8E2B52CUT7OmF-47" value="" style="group" vertex="1" connectable="0" parent="1">
          <mxGeometry x="256" y="781" width="150" height="70" as="geometry" />
        </mxCell>
        <mxCell id="NBxIQFS8E2B52CUT7OmF-48" value="On-Premise" style="sketch=0;outlineConnect=0;gradientColor=none;html=1;whiteSpace=wrap;fontSize=12;fontStyle=0;shape=mxgraph.aws4.group;grIcon=mxgraph.aws4.group_on_premise;strokeColor=#858B94;fillColor=none;verticalAlign=top;align=left;spacingLeft=30;fontColor=#858B94;dashed=0;" vertex="1" parent="NBxIQFS8E2B52CUT7OmF-47">
          <mxGeometry width="150" height="70" as="geometry" />
        </mxCell>
        <mxCell id="NBxIQFS8E2B52CUT7OmF-49" value="" style="dashed=0;outlineConnect=0;html=1;align=center;labelPosition=center;verticalLabelPosition=bottom;verticalAlign=top;shape=mxgraph.weblogos.oracle;fillColor=#FF0000;strokeColor=none" vertex="1" parent="NBxIQFS8E2B52CUT7OmF-47">
          <mxGeometry x="56" y="44" width="90" height="23" as="geometry" />
        </mxCell>
        <mxCell id="NBxIQFS8E2B52CUT7OmF-50" value="" style="group" vertex="1" connectable="0" parent="1">
          <mxGeometry x="84" y="780" width="150" height="70" as="geometry" />
        </mxCell>
        <mxCell id="NBxIQFS8E2B52CUT7OmF-51" value="Google Bare Metal" style="sketch=0;outlineConnect=0;gradientColor=none;html=1;whiteSpace=wrap;fontSize=12;fontStyle=0;shape=mxgraph.aws4.group;grIcon=mxgraph.aws4.group_on_premise;strokeColor=#858B94;fillColor=none;verticalAlign=top;align=left;spacingLeft=30;fontColor=#858B94;dashed=0;" vertex="1" parent="NBxIQFS8E2B52CUT7OmF-50">
          <mxGeometry width="150" height="70" as="geometry" />
        </mxCell>
        <mxCell id="NBxIQFS8E2B52CUT7OmF-52" value="" style="dashed=0;outlineConnect=0;html=1;align=center;labelPosition=center;verticalLabelPosition=bottom;verticalAlign=top;shape=mxgraph.weblogos.oracle;fillColor=#FF0000;strokeColor=none" vertex="1" parent="NBxIQFS8E2B52CUT7OmF-50">
          <mxGeometry x="56" y="44" width="90" height="23" as="geometry" />
        </mxCell>
        <mxCell id="NBxIQFS8E2B52CUT7OmF-53" value="" style="group" vertex="1" connectable="0" parent="1">
          <mxGeometry x="600" y="782" width="150" height="70" as="geometry" />
        </mxCell>
        <mxCell id="NBxIQFS8E2B52CUT7OmF-54" value="Azure" style="sketch=0;outlineConnect=0;gradientColor=none;html=1;whiteSpace=wrap;fontSize=12;fontStyle=0;shape=mxgraph.aws4.group;grIcon=mxgraph.aws4.group_on_premise;strokeColor=#858B94;fillColor=none;verticalAlign=top;align=left;spacingLeft=30;fontColor=#858B94;dashed=0;" vertex="1" parent="NBxIQFS8E2B52CUT7OmF-53">
          <mxGeometry width="150" height="70" as="geometry" />
        </mxCell>
        <mxCell id="NBxIQFS8E2B52CUT7OmF-55" value="" style="dashed=0;outlineConnect=0;html=1;align=center;labelPosition=center;verticalLabelPosition=bottom;verticalAlign=top;shape=mxgraph.weblogos.oracle;fillColor=#FF0000;strokeColor=none" vertex="1" parent="NBxIQFS8E2B52CUT7OmF-53">
          <mxGeometry x="56" y="44" width="90" height="23" as="geometry" />
        </mxCell>
        <mxCell id="NBxIQFS8E2B52CUT7OmF-56" value="" style="group" vertex="1" connectable="0" parent="1">
          <mxGeometry x="760" y="781" width="150" height="70" as="geometry" />
        </mxCell>
        <mxCell id="NBxIQFS8E2B52CUT7OmF-57" value="AWS" style="sketch=0;outlineConnect=0;gradientColor=none;html=1;whiteSpace=wrap;fontSize=12;fontStyle=0;shape=mxgraph.aws4.group;grIcon=mxgraph.aws4.group_on_premise;strokeColor=#858B94;fillColor=none;verticalAlign=top;align=left;spacingLeft=30;fontColor=#858B94;dashed=0;" vertex="1" parent="NBxIQFS8E2B52CUT7OmF-56">
          <mxGeometry width="150" height="70" as="geometry" />
        </mxCell>
        <mxCell id="NBxIQFS8E2B52CUT7OmF-58" value="" style="dashed=0;outlineConnect=0;html=1;align=center;labelPosition=center;verticalLabelPosition=bottom;verticalAlign=top;shape=mxgraph.weblogos.oracle;fillColor=#FF0000;strokeColor=none" vertex="1" parent="NBxIQFS8E2B52CUT7OmF-56">
          <mxGeometry x="56" y="44" width="90" height="23" as="geometry" />
        </mxCell>
        <mxCell id="NBxIQFS8E2B52CUT7OmF-59" value="" style="group" vertex="1" connectable="0" parent="1">
          <mxGeometry x="430" y="781" width="150" height="70" as="geometry" />
        </mxCell>
        <mxCell id="NBxIQFS8E2B52CUT7OmF-60" value="OCI" style="sketch=0;outlineConnect=0;gradientColor=none;html=1;whiteSpace=wrap;fontSize=12;fontStyle=0;shape=mxgraph.aws4.group;grIcon=mxgraph.aws4.group_on_premise;strokeColor=#858B94;fillColor=none;verticalAlign=top;align=left;spacingLeft=30;fontColor=#858B94;dashed=0;" vertex="1" parent="NBxIQFS8E2B52CUT7OmF-59">
          <mxGeometry width="150" height="70" as="geometry" />
        </mxCell>
        <mxCell id="NBxIQFS8E2B52CUT7OmF-61" value="" style="dashed=0;outlineConnect=0;html=1;align=center;labelPosition=center;verticalLabelPosition=bottom;verticalAlign=top;shape=mxgraph.weblogos.oracle;fillColor=#FF0000;strokeColor=none" vertex="1" parent="NBxIQFS8E2B52CUT7OmF-59">
          <mxGeometry x="56" y="44" width="90" height="23" as="geometry" />
        </mxCell>
        <mxCell id="NBxIQFS8E2B52CUT7OmF-62" value="" style="endArrow=none;html=1;rounded=0;entryX=0.5;entryY=1;entryDx=0;entryDy=0;exitX=0.475;exitY=0;exitDx=0;exitDy=0;exitPerimeter=0;" edge="1" parent="1" source="NBxIQFS8E2B52CUT7OmF-43" target="NBxIQFS8E2B52CUT7OmF-11">
          <mxGeometry width="50" height="50" relative="1" as="geometry">
            <mxPoint x="560" y="620" as="sourcePoint" />
            <mxPoint x="610" y="570" as="targetPoint" />
            <Array as="points">
              <mxPoint x="132" y="570" />
              <mxPoint x="590" y="570" />
            </Array>
          </mxGeometry>
        </mxCell>
        <mxCell id="NBxIQFS8E2B52CUT7OmF-63" value="" style="endArrow=none;html=1;rounded=0;exitX=0.5;exitY=0;exitDx=0;exitDy=0;" edge="1" parent="1">
          <mxGeometry width="50" height="50" relative="1" as="geometry">
            <mxPoint x="519" y="620" as="sourcePoint" />
            <mxPoint x="518" y="570" as="targetPoint" />
          </mxGeometry>
        </mxCell>
        <mxCell id="NBxIQFS8E2B52CUT7OmF-64" value="" style="endArrow=none;html=1;rounded=0;entryX=0.5;entryY=1;entryDx=0;entryDy=0;exitX=0.5;exitY=0;exitDx=0;exitDy=0;" edge="1" parent="1" source="NBxIQFS8E2B52CUT7OmF-40" target="NBxIQFS8E2B52CUT7OmF-18">
          <mxGeometry width="50" height="50" relative="1" as="geometry">
            <mxPoint x="950" y="620" as="sourcePoint" />
            <mxPoint x="1000" y="570" as="targetPoint" />
            <Array as="points">
              <mxPoint x="800" y="570" />
              <mxPoint x="770" y="570" />
            </Array>
          </mxGeometry>
        </mxCell>
        <mxCell id="NBxIQFS8E2B52CUT7OmF-65" value="" style="endArrow=none;html=1;rounded=0;" edge="1" parent="1">
          <mxGeometry width="50" height="50" relative="1" as="geometry">
            <mxPoint x="590" y="570" as="sourcePoint" />
            <mxPoint x="780" y="570" as="targetPoint" />
          </mxGeometry>
        </mxCell>
        <mxCell id="NBxIQFS8E2B52CUT7OmF-66" value="" style="endArrow=none;html=1;rounded=0;entryX=0.098;entryY=1.01;entryDx=0;entryDy=0;entryPerimeter=0;" edge="1" parent="1" source="NBxIQFS8E2B52CUT7OmF-51" target="NBxIQFS8E2B52CUT7OmF-37">
          <mxGeometry width="50" height="50" relative="1" as="geometry">
            <mxPoint x="160" y="770" as="sourcePoint" />
            <mxPoint x="440" y="730" as="targetPoint" />
          </mxGeometry>
        </mxCell>
        <mxCell id="NBxIQFS8E2B52CUT7OmF-67" value="" style="endArrow=none;html=1;rounded=0;entryX=0.25;entryY=1;entryDx=0;entryDy=0;" edge="1" parent="1" target="NBxIQFS8E2B52CUT7OmF-37">
          <mxGeometry width="50" height="50" relative="1" as="geometry">
            <mxPoint x="330" y="780" as="sourcePoint" />
            <mxPoint x="550" y="720" as="targetPoint" />
          </mxGeometry>
        </mxCell>
        <mxCell id="NBxIQFS8E2B52CUT7OmF-68" value="" style="endArrow=none;html=1;rounded=0;entryX=0.5;entryY=1;entryDx=0;entryDy=0;" edge="1" parent="1" source="NBxIQFS8E2B52CUT7OmF-60" target="NBxIQFS8E2B52CUT7OmF-37">
          <mxGeometry width="50" height="50" relative="1" as="geometry">
            <mxPoint x="500" y="770" as="sourcePoint" />
            <mxPoint x="550" y="720" as="targetPoint" />
          </mxGeometry>
        </mxCell>
        <mxCell id="NBxIQFS8E2B52CUT7OmF-69" value="" style="endArrow=none;html=1;rounded=0;entryX=0.75;entryY=1;entryDx=0;entryDy=0;" edge="1" parent="1" source="NBxIQFS8E2B52CUT7OmF-54" target="NBxIQFS8E2B52CUT7OmF-37">
          <mxGeometry width="50" height="50" relative="1" as="geometry">
            <mxPoint x="710" y="970" as="sourcePoint" />
            <mxPoint x="550" y="720" as="targetPoint" />
          </mxGeometry>
        </mxCell>
        <mxCell id="NBxIQFS8E2B52CUT7OmF-70" value="" style="endArrow=none;html=1;rounded=0;entryX=0.896;entryY=1.01;entryDx=0;entryDy=0;entryPerimeter=0;" edge="1" parent="1" target="NBxIQFS8E2B52CUT7OmF-37">
          <mxGeometry width="50" height="50" relative="1" as="geometry">
            <mxPoint x="810" y="780" as="sourcePoint" />
            <mxPoint x="810" y="910" as="targetPoint" />
          </mxGeometry>
        </mxCell>
        <mxCell id="NBxIQFS8E2B52CUT7OmF-71" value="" style="strokeColor=#dddddd;shadow=1;strokeWidth=1;rounded=1;absoluteArcSize=1;arcSize=2;" vertex="1" parent="1">
          <mxGeometry x="28" y="182" width="190" height="60" as="geometry" />
        </mxCell>
        <mxCell id="NBxIQFS8E2B52CUT7OmF-72" value="&lt;font color=&quot;#000000&quot;&gt;Secure Access&lt;/font&gt;&lt;br&gt;Identity-Aware Proxy" style="editableCssRules=.*;html=1;fontColor=#999999;shape=image;verticalLabelPosition=middle;verticalAlign=middle;labelPosition=right;align=left;spacingLeft=20;part=1;points=[];imageAspect=0;image=data:image/svg+xml,PHN2ZyB4bWxucz0iaHR0cDovL3d3dy53My5vcmcvMjAwMC9zdmciIHhtbG5zOnY9Imh0dHBzOi8vdmVjdGEuaW8vbmFubyIgd2lkdGg9IjE5Ljk5IiBoZWlnaHQ9IjEwLjQxIiB2aWV3Qm94PSIwIDAgMTkuOTkgMTAuNDEiPiYjeGE7CTxwYXRoIGQ9Ik05Ljg0LjIxYTUuMSA1LjEgMCAxIDAgNS4xIDUuMWgwYTUuMSA1LjEgMCAwIDAtNS4xLTUuMXptMCA5LjA4YTQgNCAwIDEgMSA0LTRoMGE0IDQgMCAwIDEtNCA0LjAxeiIgZmlsbD0iIzQyODVmNCIvPiYjeGE7CTxwYXRoIGQ9Ik0xMS43NiA1LjkyYTIuMDkgMi4wOSAwIDAgMC0uMjgtLjIyIDMuMTEgMy4xMSAwIDAgMC0yLjYxLS4yOCAyLjMxIDIuMzEgMCAwIDAtLjg5LjQ3Ljg2Ljg2IDAgMCAwLS4zNy42NXYxaDQuNDd2LS44MmExIDEgMCAwIDAtLjMyLS44ek05Ljg0IDQuNzRhMS4xNiAxLjE2IDAgMSAwLTEuMTctMS4xNWgwYTEuMTcgMS4xNyAwIDAgMCAxLjE3IDEuMTV6IiBmaWxsPSIjNjY5ZGY2Ii8+JiN4YTsJPHBhdGggZD0iTTE2LjI5IDUuNmgyLjIxbC0uNzcuNzhoMS4wNGwxLjIyLTEuMjMtMS4yMi0xLjIyaC0xLjA0bC43Ny43N2gtMi4yMXoiIGZpbGw9IiNhZWNiZmEiLz4mI3hhOwk8cGF0aCBkPSJNMTcuODggMS43M1YwaC0xLjczbC0uNzMuNzRoMS4wOWwtLjk4Ljk3LjY0LjY0Ljk4LS45N3YxLjA5em0tMi40NiA3Ljk1bC43My43M2gxLjczVjguNjhsLS43My0uNzN2MS4wOWwtLjk4LS45Ny0uNjQuNjMuOTguOTh6TTEuMzQgMy44NkExLjM1IDEuMzUgMCAxIDAgMi43IDUuMjFhMS4zNSAxLjM1IDAgMCAwLTEuMzYtMS4zNXptMCAyLjFhLjc2Ljc2IDAgMSAxIC43Ni0uNzVoMGEuNzYuNzYgMCAwIDEtLjc2Ljc1eiIgZmlsbD0iIzY2OWRmNiIvPiYjeGE7PC9zdmc+;" vertex="1" parent="NBxIQFS8E2B52CUT7OmF-71">
          <mxGeometry width="30" height="15" relative="1" as="geometry">
            <mxPoint x="15" y="22" as="offset" />
          </mxGeometry>
        </mxCell>
        <mxCell id="NBxIQFS8E2B52CUT7OmF-73" value="&amp;nbsp;User" style="html=1;whiteSpace=wrap;strokeColor=none;fillColor=#0079D6;labelPosition=center;verticalLabelPosition=middle;verticalAlign=top;align=center;fontSize=12;outlineConnect=0;spacingTop=-6;fontColor=#FFFFFF;sketch=0;shape=mxgraph.sitemap.user;" vertex="1" parent="1">
          <mxGeometry x="68.5" y="9" width="101" height="56" as="geometry" />
        </mxCell>
        <mxCell id="NBxIQFS8E2B52CUT7OmF-78" value="Volume Mount" style="sketch=0;points=[[0,0,0],[0.25,0,0],[0.5,0,0],[0.75,0,0],[1,0,0],[1,0.25,0],[1,0.5,0],[1,0.75,0],[1,1,0],[0.75,1,0],[0.5,1,0],[0.25,1,0],[0,1,0],[0,0.75,0],[0,0.5,0],[0,0.25,0]];rounded=1;absoluteArcSize=1;arcSize=2;html=1;strokeColor=default;gradientColor=none;shadow=0;dashed=0;fontSize=12;fontColor=#9E9E9E;align=left;verticalAlign=top;spacing=10;spacingTop=-4;whiteSpace=wrap;fillColor=#FFF8E1;" vertex="1" parent="1">
          <mxGeometry x="540" y="230" width="290" height="70" as="geometry" />
        </mxCell>
        <mxCell id="NBxIQFS8E2B52CUT7OmF-20" value="" style="endArrow=classic;html=1;exitX=1;exitY=0.5;exitDx=0;exitDy=0;exitPerimeter=0;" edge="1" parent="1" source="7hmb3j0zQA2hz0zKoHt6-1" target="NBxIQFS8E2B52CUT7OmF-18">
          <mxGeometry width="50" height="50" relative="1" as="geometry">
            <mxPoint x="820" y="299" as="sourcePoint" />
            <mxPoint x="830" y="491" as="targetPoint" />
            <Array as="points">
              <mxPoint x="850" y="320" />
              <mxPoint x="850" y="491" />
            </Array>
          </mxGeometry>
        </mxCell>
        <mxCell id="NBxIQFS8E2B52CUT7OmF-16" value="" style="endArrow=classic;html=1;entryX=1;entryY=0.5;entryDx=0;entryDy=0;exitX=1;exitY=0.5;exitDx=0;exitDy=0;exitPerimeter=0;" edge="1" parent="1" source="NBxIQFS8E2B52CUT7OmF-80" target="NBxIQFS8E2B52CUT7OmF-11">
          <mxGeometry width="50" height="50" relative="1" as="geometry">
            <mxPoint x="640" y="310" as="sourcePoint" />
            <mxPoint x="800" y="247" as="targetPoint" />
            <Array as="points">
              <mxPoint x="670" y="310" />
              <mxPoint x="670" y="491" />
            </Array>
          </mxGeometry>
        </mxCell>
        <mxCell id="NBxIQFS8E2B52CUT7OmF-80" value="database.js" style="strokeWidth=1;html=1;shape=mxgraph.flowchart.document2;whiteSpace=wrap;size=0.25;" vertex="1" parent="1">
          <mxGeometry x="555" y="260" width="85" height="30" as="geometry" />
        </mxCell>
        <mxCell id="7hmb3j0zQA2hz0zKoHt6-1" value="endpoints.json" style="strokeWidth=1;html=1;shape=mxgraph.flowchart.document2;whiteSpace=wrap;size=0.25;" vertex="1" parent="1">
          <mxGeometry x="710" y="260" width="100" height="30" as="geometry" />
        </mxCell>
        <mxCell id="EVOTIwntWdhU6_6rPtG5-2" value="" style="edgeStyle=orthogonalEdgeStyle;fontSize=12;html=1;endArrow=blockThin;endFill=1;rounded=0;strokeWidth=2;endSize=4;startSize=4;dashed=1;dashPattern=1 3;strokeColor=#9E9E9E;" edge="1" parent="1" target="EVOTIwntWdhU6_6rPtG5-8">
          <mxGeometry width="100" relative="1" as="geometry">
            <mxPoint x="170" y="40" as="sourcePoint" />
            <mxPoint x="270" y="40" as="targetPoint" />
          </mxGeometry>
        </mxCell>
        <mxCell id="EVOTIwntWdhU6_6rPtG5-3" value="" style="strokeColor=#dddddd;shadow=1;strokeWidth=1;rounded=1;absoluteArcSize=1;arcSize=2;" vertex="1" parent="1">
          <mxGeometry x="28" y="400" width="192" height="60" as="geometry" />
        </mxCell>
        <mxCell id="EVOTIwntWdhU6_6rPtG5-4" value="Network Endpoint&amp;nbsp;&lt;div&gt;Group (NEG)&lt;/div&gt;" style="editableCssRules=.*;html=1;fontColor=#999999;shape=image;verticalLabelPosition=middle;verticalAlign=middle;labelPosition=right;align=left;spacingLeft=20;part=1;points=[];imageAspect=0;image=data:image/svg+xml,PHN2ZyB4bWxucz0iaHR0cDovL3d3dy53My5vcmcvMjAwMC9zdmciIHhtbG5zOnY9Imh0dHBzOi8vdmVjdGEuaW8vbmFubyIgd2lkdGg9IjE5Ljk5OTk5ODA5MjY1MTM2NyIgaGVpZ2h0PSIyMCIgdmlld0JveD0iMCAtMi44NDIxNzA1NjE4NzU1NzQ1ZS0xNSAxOS45OTk5OTgwOTI2NTEzNjcgMjAiPiYjeGE7CTxzdHlsZSB0eXBlPSJ0ZXh0L2NzcyI+JiN4YTsJLnN0MHtmaWxsOiM0Mjg1ZjQ7fSYjeGE7CS5zdDF7ZmlsbDojNjY5ZGY2O30mI3hhOwk8L3N0eWxlPiYjeGE7CTxwYXRoIGNsYXNzPSJzdDEiIGQ9Ik0xNS40OSAxMC40djYuN2EuNC40IDAgMCAxLS40LjRIMi45YS40LjQgMCAwIDEtLjQtLjRWNC45YS40LjQgMCAwIDEgLjQtLjRoNi43YS40LjQgMCAwIDAgLjQtLjRWMi40YS40LjQgMCAwIDAtLjQtLjRILjRhLjQuNCAwIDAgMC0uNC40djE3LjJhLjQuNCAwIDAgMCAuNC40aDE3LjJhLjQuNCAwIDAgMCAuNC0uNHYtOS4yYS40LjQgMCAwIDAtLjQtLjRoLTEuNzFhLjQuNCAwIDAgMC0uNC40eiIvPiYjeGE7CTxwYXRoIGNsYXNzPSJzdDAiIGQ9Ik0xMiAuNHY3LjJhLjQuNCAwIDAgMCAuNC40aDcuMmEuNC40IDAgMCAwIC40LS40Vi40YS40LjQgMCAwIDAtLjQtLjRoLTcuMmEuNC40IDAgMCAwLS40LjR6bTUuNiA0LjFoLTEuNzFhLjQuNCAwIDAgMS0uNC0uNFYyLjRhLjQuNCAwIDAgMSAuNC0uNGgxLjcxYS40LjQgMCAwIDEgLjQuNHYxLjdhLjQuNCAwIDAgMS0uNC40eiIvPiYjeGE7PC9zdmc+;" vertex="1" parent="EVOTIwntWdhU6_6rPtG5-3">
          <mxGeometry width="30" height="30" relative="1" as="geometry">
            <mxPoint x="15" y="15" as="offset" />
          </mxGeometry>
        </mxCell>
        <mxCell id="EVOTIwntWdhU6_6rPtG5-6" value="" style="endArrow=classic;html=1;rounded=0;exitX=0.5;exitY=1;exitDx=0;exitDy=0;" edge="1" parent="1" source="NBxIQFS8E2B52CUT7OmF-34" target="EVOTIwntWdhU6_6rPtG5-3">
          <mxGeometry width="50" height="50" relative="1" as="geometry">
            <mxPoint x="-80" y="560" as="sourcePoint" />
            <mxPoint x="-30" y="510" as="targetPoint" />
          </mxGeometry>
        </mxCell>
        <mxCell id="EVOTIwntWdhU6_6rPtG5-7" value="" style="endArrow=classic;html=1;rounded=0;exitX=0.5;exitY=1;exitDx=0;exitDy=0;" edge="1" parent="1" source="EVOTIwntWdhU6_6rPtG5-3">
          <mxGeometry width="50" height="50" relative="1" as="geometry">
            <mxPoint x="-100" y="620" as="sourcePoint" />
            <mxPoint x="270" y="510" as="targetPoint" />
            <Array as="points">
              <mxPoint x="124" y="510" />
            </Array>
          </mxGeometry>
        </mxCell>
      </root>
    </mxGraphModel>
  </diagram>
</mxfile>
